  0
SECTION
  2
BLOCKS
  0
ENDSEC
  0
SECTION
  2
ENTITIES
  0
LINE
  8
0
 10
357
 20
27.3553
 11
360
 21
27.3553
  0
LINE
  8
0
 10
360
 20
27.3553
 11
360
 21
19.3553
  0
LINE
  8
0
 10
360
 20
19.3553
 11
363
 21
19.3553
  0
LINE
  8
0
 10
363
 20
19.3553
 11
363
 21
51.3553
  0
LINE
  8
0
 10
363
 20
51.3553
 11
360
 21
51.3553
  0
LINE
  8
0
 10
360
 20
51.3553
 11
360
 21
43.3553
  0
LINE
  8
0
 10
360
 20
43.3553
 11
357
 21
43.3553
  0
LINE
  8
0
 10
357
 20
43.3553
 11
357
 21
51.3553
  0
LINE
  8
0
 10
357
 20
51.3553
 11
354
 21
51.3553
  0
LINE
  8
0
 10
354
 20
51.3553
 11
354
 21
19.3553
  0
LINE
  8
0
 10
354
 20
19.3553
 11
357
 21
19.3553
  0
LINE
  8
0
 10
357
 20
19.3553
 11
357
 21
27.3553
  0
LINE
  8
0
 10
347
 20
27.3553
 11
350
 21
27.3553
  0
LINE
  8
0
 10
350
 20
27.3553
 11
350
 21
19.3553
  0
LINE
  8
0
 10
350
 20
19.3553
 11
353
 21
19.3553
  0
LINE
  8
0
 10
353
 20
19.3553
 11
353
 21
51.3553
  0
LINE
  8
0
 10
353
 20
51.3553
 11
350
 21
51.3553
  0
LINE
  8
0
 10
350
 20
51.3553
 11
350
 21
43.3553
  0
LINE
  8
0
 10
350
 20
43.3553
 11
347
 21
43.3553
  0
LINE
  8
0
 10
347
 20
43.3553
 11
347
 21
51.3553
  0
LINE
  8
0
 10
347
 20
51.3553
 11
344
 21
51.3553
  0
LINE
  8
0
 10
344
 20
51.3553
 11
344
 21
19.3553
  0
LINE
  8
0
 10
344
 20
19.3553
 11
347
 21
19.3553
  0
LINE
  8
0
 10
347
 20
19.3553
 11
347
 21
27.3553
  0
LINE
  8
0
 10
337
 20
27.3553
 11
340
 21
27.3553
  0
LINE
  8
0
 10
340
 20
27.3553
 11
340
 21
19.3553
  0
LINE
  8
0
 10
340
 20
19.3553
 11
343
 21
19.3553
  0
LINE
  8
0
 10
343
 20
19.3553
 11
343
 21
51.3553
  0
LINE
  8
0
 10
343
 20
51.3553
 11
340
 21
51.3553
  0
LINE
  8
0
 10
340
 20
51.3553
 11
340
 21
43.3553
  0
LINE
  8
0
 10
340
 20
43.3553
 11
337
 21
43.3553
  0
LINE
  8
0
 10
337
 20
43.3553
 11
337
 21
51.3553
  0
LINE
  8
0
 10
337
 20
51.3553
 11
334
 21
51.3553
  0
LINE
  8
0
 10
334
 20
51.3553
 11
334
 21
19.3553
  0
LINE
  8
0
 10
334
 20
19.3553
 11
337
 21
19.3553
  0
LINE
  8
0
 10
337
 20
19.3553
 11
337
 21
27.3553
  0
LINE
  8
0
 10
327
 20
27.3553
 11
330
 21
27.3553
  0
LINE
  8
0
 10
330
 20
27.3553
 11
330
 21
19.3553
  0
LINE
  8
0
 10
330
 20
19.3553
 11
333
 21
19.3553
  0
LINE
  8
0
 10
333
 20
19.3553
 11
333
 21
51.3553
  0
LINE
  8
0
 10
333
 20
51.3553
 11
330
 21
51.3553
  0
LINE
  8
0
 10
330
 20
51.3553
 11
330
 21
43.3553
  0
LINE
  8
0
 10
330
 20
43.3553
 11
327
 21
43.3553
  0
LINE
  8
0
 10
327
 20
43.3553
 11
327
 21
51.3553
  0
LINE
  8
0
 10
327
 20
51.3553
 11
324
 21
51.3553
  0
LINE
  8
0
 10
324
 20
51.3553
 11
324
 21
19.3553
  0
LINE
  8
0
 10
324
 20
19.3553
 11
327
 21
19.3553
  0
LINE
  8
0
 10
327
 20
19.3553
 11
327
 21
27.3553
  0
LINE
  8
0
 10
317
 20
27.3553
 11
320
 21
27.3553
  0
LINE
  8
0
 10
320
 20
27.3553
 11
320
 21
19.3553
  0
LINE
  8
0
 10
320
 20
19.3553
 11
323
 21
19.3553
  0
LINE
  8
0
 10
323
 20
19.3553
 11
323
 21
51.3553
  0
LINE
  8
0
 10
323
 20
51.3553
 11
320
 21
51.3553
  0
LINE
  8
0
 10
320
 20
51.3553
 11
320
 21
43.3553
  0
LINE
  8
0
 10
320
 20
43.3553
 11
317
 21
43.3553
  0
LINE
  8
0
 10
317
 20
43.3553
 11
317
 21
51.3553
  0
LINE
  8
0
 10
317
 20
51.3553
 11
314
 21
51.3553
  0
LINE
  8
0
 10
314
 20
51.3553
 11
314
 21
19.3553
  0
LINE
  8
0
 10
314
 20
19.3553
 11
317
 21
19.3553
  0
LINE
  8
0
 10
317
 20
19.3553
 11
317
 21
27.3553
  0
LINE
  8
0
 10
307
 20
27.3553
 11
310
 21
27.3553
  0
LINE
  8
0
 10
310
 20
27.3553
 11
310
 21
19.3553
  0
LINE
  8
0
 10
310
 20
19.3553
 11
313
 21
19.3553
  0
LINE
  8
0
 10
313
 20
19.3553
 11
313
 21
51.3553
  0
LINE
  8
0
 10
313
 20
51.3553
 11
310
 21
51.3553
  0
LINE
  8
0
 10
310
 20
51.3553
 11
310
 21
43.3553
  0
LINE
  8
0
 10
310
 20
43.3553
 11
307
 21
43.3553
  0
LINE
  8
0
 10
307
 20
43.3553
 11
307
 21
51.3553
  0
LINE
  8
0
 10
307
 20
51.3553
 11
304
 21
51.3553
  0
LINE
  8
0
 10
304
 20
51.3553
 11
304
 21
19.3553
  0
LINE
  8
0
 10
304
 20
19.3553
 11
307
 21
19.3553
  0
LINE
  8
0
 10
307
 20
19.3553
 11
307
 21
27.3553
  0
LINE
  8
0
 10
297
 20
27.3553
 11
300
 21
27.3553
  0
LINE
  8
0
 10
300
 20
27.3553
 11
300
 21
19.3553
  0
LINE
  8
0
 10
300
 20
19.3553
 11
303
 21
19.3553
  0
LINE
  8
0
 10
303
 20
19.3553
 11
303
 21
51.3553
  0
LINE
  8
0
 10
303
 20
51.3553
 11
300
 21
51.3553
  0
LINE
  8
0
 10
300
 20
51.3553
 11
300
 21
43.3553
  0
LINE
  8
0
 10
300
 20
43.3553
 11
297
 21
43.3553
  0
LINE
  8
0
 10
297
 20
43.3553
 11
297
 21
51.3553
  0
LINE
  8
0
 10
297
 20
51.3553
 11
294
 21
51.3553
  0
LINE
  8
0
 10
294
 20
51.3553
 11
294
 21
19.3553
  0
LINE
  8
0
 10
294
 20
19.3553
 11
297
 21
19.3553
  0
LINE
  8
0
 10
297
 20
19.3553
 11
297
 21
27.3553
  0
LINE
  8
0
 10
287
 20
27.3553
 11
290
 21
27.3553
  0
LINE
  8
0
 10
290
 20
27.3553
 11
290
 21
19.3553
  0
LINE
  8
0
 10
290
 20
19.3553
 11
293
 21
19.3553
  0
LINE
  8
0
 10
293
 20
19.3553
 11
293
 21
51.3553
  0
LINE
  8
0
 10
293
 20
51.3553
 11
290
 21
51.3553
  0
LINE
  8
0
 10
290
 20
51.3553
 11
290
 21
43.3553
  0
LINE
  8
0
 10
290
 20
43.3553
 11
287
 21
43.3553
  0
LINE
  8
0
 10
287
 20
43.3553
 11
287
 21
51.3553
  0
LINE
  8
0
 10
287
 20
51.3553
 11
284
 21
51.3553
  0
LINE
  8
0
 10
284
 20
51.3553
 11
284
 21
19.3553
  0
LINE
  8
0
 10
284
 20
19.3553
 11
287
 21
19.3553
  0
LINE
  8
0
 10
287
 20
19.3553
 11
287
 21
27.3553
  0
LINE
  8
0
 10
277
 20
27.3553
 11
280
 21
27.3553
  0
LINE
  8
0
 10
280
 20
27.3553
 11
280
 21
19.3553
  0
LINE
  8
0
 10
280
 20
19.3553
 11
283
 21
19.3553
  0
LINE
  8
0
 10
283
 20
19.3553
 11
283
 21
51.3553
  0
LINE
  8
0
 10
283
 20
51.3553
 11
280
 21
51.3553
  0
LINE
  8
0
 10
280
 20
51.3553
 11
280
 21
43.3553
  0
LINE
  8
0
 10
280
 20
43.3553
 11
277
 21
43.3553
  0
LINE
  8
0
 10
277
 20
43.3553
 11
277
 21
51.3553
  0
LINE
  8
0
 10
277
 20
51.3553
 11
274
 21
51.3553
  0
LINE
  8
0
 10
274
 20
51.3553
 11
274
 21
19.3553
  0
LINE
  8
0
 10
274
 20
19.3553
 11
277
 21
19.3553
  0
LINE
  8
0
 10
277
 20
19.3553
 11
277
 21
27.3553
  0
LINE
  8
0
 10
267
 20
27.3553
 11
270
 21
27.3553
  0
LINE
  8
0
 10
270
 20
27.3553
 11
270
 21
19.3553
  0
LINE
  8
0
 10
270
 20
19.3553
 11
273
 21
19.3553
  0
LINE
  8
0
 10
273
 20
19.3553
 11
273
 21
51.3553
  0
LINE
  8
0
 10
273
 20
51.3553
 11
270
 21
51.3553
  0
LINE
  8
0
 10
270
 20
51.3553
 11
270
 21
43.3553
  0
LINE
  8
0
 10
270
 20
43.3553
 11
267
 21
43.3553
  0
LINE
  8
0
 10
267
 20
43.3553
 11
267
 21
51.3553
  0
LINE
  8
0
 10
267
 20
51.3553
 11
264
 21
51.3553
  0
LINE
  8
0
 10
264
 20
51.3553
 11
264
 21
19.3553
  0
LINE
  8
0
 10
264
 20
19.3553
 11
267
 21
19.3553
  0
LINE
  8
0
 10
267
 20
19.3553
 11
267
 21
27.3553
  0
LINE
  8
0
 10
257
 20
27.3553
 11
260
 21
27.3553
  0
LINE
  8
0
 10
260
 20
27.3553
 11
260
 21
19.3553
  0
LINE
  8
0
 10
260
 20
19.3553
 11
263
 21
19.3553
  0
LINE
  8
0
 10
263
 20
19.3553
 11
263
 21
51.3553
  0
LINE
  8
0
 10
263
 20
51.3553
 11
260
 21
51.3553
  0
LINE
  8
0
 10
260
 20
51.3553
 11
260
 21
43.3553
  0
LINE
  8
0
 10
260
 20
43.3553
 11
257
 21
43.3553
  0
LINE
  8
0
 10
257
 20
43.3553
 11
257
 21
51.3553
  0
LINE
  8
0
 10
257
 20
51.3553
 11
254
 21
51.3553
  0
LINE
  8
0
 10
254
 20
51.3553
 11
254
 21
19.3553
  0
LINE
  8
0
 10
254
 20
19.3553
 11
257
 21
19.3553
  0
LINE
  8
0
 10
257
 20
19.3553
 11
257
 21
27.3553
  0
LINE
  8
0
 10
237
 20
27.3553
 11
240
 21
27.3553
  0
LINE
  8
0
 10
240
 20
27.3553
 11
240
 21
19.3553
  0
LINE
  8
0
 10
240
 20
19.3553
 11
243
 21
19.3553
  0
LINE
  8
0
 10
243
 20
19.3553
 11
243
 21
51.3553
  0
LINE
  8
0
 10
243
 20
51.3553
 11
240
 21
51.3553
  0
LINE
  8
0
 10
240
 20
51.3553
 11
240
 21
43.3553
  0
LINE
  8
0
 10
240
 20
43.3553
 11
237
 21
43.3553
  0
LINE
  8
0
 10
237
 20
43.3553
 11
237
 21
51.3553
  0
LINE
  8
0
 10
237
 20
51.3553
 11
234
 21
51.3553
  0
LINE
  8
0
 10
234
 20
51.3553
 11
234
 21
19.3553
  0
LINE
  8
0
 10
234
 20
19.3553
 11
237
 21
19.3553
  0
LINE
  8
0
 10
237
 20
19.3553
 11
237
 21
27.3553
  0
LINE
  8
0
 10
247
 20
27.3553
 11
250
 21
27.3553
  0
LINE
  8
0
 10
250
 20
27.3553
 11
250
 21
19.3553
  0
LINE
  8
0
 10
250
 20
19.3553
 11
253
 21
19.3553
  0
LINE
  8
0
 10
253
 20
19.3553
 11
253
 21
51.3553
  0
LINE
  8
0
 10
253
 20
51.3553
 11
250
 21
51.3553
  0
LINE
  8
0
 10
250
 20
51.3553
 11
250
 21
43.3553
  0
LINE
  8
0
 10
250
 20
43.3553
 11
247
 21
43.3553
  0
LINE
  8
0
 10
247
 20
43.3553
 11
247
 21
51.3553
  0
LINE
  8
0
 10
247
 20
51.3553
 11
244
 21
51.3553
  0
LINE
  8
0
 10
244
 20
51.3553
 11
244
 21
19.3553
  0
LINE
  8
0
 10
244
 20
19.3553
 11
247
 21
19.3553
  0
LINE
  8
0
 10
247
 20
19.3553
 11
247
 21
27.3553
  0
LINE
  8
0
 10
227
 20
27.3553
 11
230
 21
27.3553
  0
LINE
  8
0
 10
230
 20
27.3553
 11
230
 21
19.3553
  0
LINE
  8
0
 10
230
 20
19.3553
 11
233
 21
19.3553
  0
LINE
  8
0
 10
233
 20
19.3553
 11
233
 21
51.3553
  0
LINE
  8
0
 10
233
 20
51.3553
 11
230
 21
51.3553
  0
LINE
  8
0
 10
230
 20
51.3553
 11
230
 21
43.3553
  0
LINE
  8
0
 10
230
 20
43.3553
 11
227
 21
43.3553
  0
LINE
  8
0
 10
227
 20
43.3553
 11
227
 21
51.3553
  0
LINE
  8
0
 10
227
 20
51.3553
 11
224
 21
51.3553
  0
LINE
  8
0
 10
224
 20
51.3553
 11
224
 21
19.3553
  0
LINE
  8
0
 10
224
 20
19.3553
 11
227
 21
19.3553
  0
LINE
  8
0
 10
227
 20
19.3553
 11
227
 21
27.3553
  0
LINE
  8
0
 10
217
 20
27.3553
 11
220
 21
27.3553
  0
LINE
  8
0
 10
220
 20
27.3553
 11
220
 21
19.3553
  0
LINE
  8
0
 10
220
 20
19.3553
 11
223
 21
19.3553
  0
LINE
  8
0
 10
223
 20
19.3553
 11
223
 21
51.3553
  0
LINE
  8
0
 10
223
 20
51.3553
 11
220
 21
51.3553
  0
LINE
  8
0
 10
220
 20
51.3553
 11
220
 21
43.3553
  0
LINE
  8
0
 10
220
 20
43.3553
 11
217
 21
43.3553
  0
LINE
  8
0
 10
217
 20
43.3553
 11
217
 21
51.3553
  0
LINE
  8
0
 10
217
 20
51.3553
 11
214
 21
51.3553
  0
LINE
  8
0
 10
214
 20
51.3553
 11
214
 21
19.3553
  0
LINE
  8
0
 10
214
 20
19.3553
 11
217
 21
19.3553
  0
LINE
  8
0
 10
217
 20
19.3553
 11
217
 21
27.3553
  0
LINE
  8
0
 10
207
 20
27.3553
 11
210
 21
27.3553
  0
LINE
  8
0
 10
210
 20
27.3553
 11
210
 21
19.3553
  0
LINE
  8
0
 10
210
 20
19.3553
 11
213
 21
19.3553
  0
LINE
  8
0
 10
213
 20
19.3553
 11
213
 21
51.3553
  0
LINE
  8
0
 10
213
 20
51.3553
 11
210
 21
51.3553
  0
LINE
  8
0
 10
210
 20
51.3553
 11
210
 21
43.3553
  0
LINE
  8
0
 10
210
 20
43.3553
 11
207
 21
43.3553
  0
LINE
  8
0
 10
207
 20
43.3553
 11
207
 21
51.3553
  0
LINE
  8
0
 10
207
 20
51.3553
 11
204
 21
51.3553
  0
LINE
  8
0
 10
204
 20
51.3553
 11
204
 21
19.3553
  0
LINE
  8
0
 10
204
 20
19.3553
 11
207
 21
19.3553
  0
LINE
  8
0
 10
207
 20
19.3553
 11
207
 21
27.3553
  0
LINE
  8
0
 10
197
 20
27.3553
 11
200
 21
27.3553
  0
LINE
  8
0
 10
200
 20
27.3553
 11
200
 21
19.3553
  0
LINE
  8
0
 10
200
 20
19.3553
 11
203
 21
19.3553
  0
LINE
  8
0
 10
203
 20
19.3553
 11
203
 21
51.3553
  0
LINE
  8
0
 10
203
 20
51.3553
 11
200
 21
51.3553
  0
LINE
  8
0
 10
200
 20
51.3553
 11
200
 21
43.3553
  0
LINE
  8
0
 10
200
 20
43.3553
 11
197
 21
43.3553
  0
LINE
  8
0
 10
197
 20
43.3553
 11
197
 21
51.3553
  0
LINE
  8
0
 10
197
 20
51.3553
 11
194
 21
51.3553
  0
LINE
  8
0
 10
194
 20
51.3553
 11
194
 21
19.3553
  0
LINE
  8
0
 10
194
 20
19.3553
 11
197
 21
19.3553
  0
LINE
  8
0
 10
197
 20
19.3553
 11
197
 21
27.3553
  0
LINE
  8
0
 10
187
 20
27.3553
 11
190
 21
27.3553
  0
LINE
  8
0
 10
190
 20
27.3553
 11
190
 21
19.3553
  0
LINE
  8
0
 10
190
 20
19.3553
 11
193
 21
19.3553
  0
LINE
  8
0
 10
193
 20
19.3553
 11
193
 21
51.3553
  0
LINE
  8
0
 10
193
 20
51.3553
 11
190
 21
51.3553
  0
LINE
  8
0
 10
190
 20
51.3553
 11
190
 21
43.3553
  0
LINE
  8
0
 10
190
 20
43.3553
 11
187
 21
43.3553
  0
LINE
  8
0
 10
187
 20
43.3553
 11
187
 21
51.3553
  0
LINE
  8
0
 10
187
 20
51.3553
 11
184
 21
51.3553
  0
LINE
  8
0
 10
184
 20
51.3553
 11
184
 21
19.3553
  0
LINE
  8
0
 10
184
 20
19.3553
 11
187
 21
19.3553
  0
LINE
  8
0
 10
187
 20
19.3553
 11
187
 21
27.3553
  0
LINE
  8
0
 10
177
 20
27.3553
 11
180
 21
27.3553
  0
LINE
  8
0
 10
180
 20
27.3553
 11
180
 21
19.3553
  0
LINE
  8
0
 10
180
 20
19.3553
 11
183
 21
19.3553
  0
LINE
  8
0
 10
183
 20
19.3553
 11
183
 21
51.3553
  0
LINE
  8
0
 10
183
 20
51.3553
 11
180
 21
51.3553
  0
LINE
  8
0
 10
180
 20
51.3553
 11
180
 21
43.3553
  0
LINE
  8
0
 10
180
 20
43.3553
 11
177
 21
43.3553
  0
LINE
  8
0
 10
177
 20
43.3553
 11
177
 21
51.3553
  0
LINE
  8
0
 10
177
 20
51.3553
 11
174
 21
51.3553
  0
LINE
  8
0
 10
174
 20
51.3553
 11
174
 21
19.3553
  0
LINE
  8
0
 10
174
 20
19.3553
 11
177
 21
19.3553
  0
LINE
  8
0
 10
177
 20
19.3553
 11
177
 21
27.3553
  0
LINE
  8
0
 10
167
 20
27.3553
 11
170
 21
27.3553
  0
LINE
  8
0
 10
170
 20
27.3553
 11
170
 21
19.3553
  0
LINE
  8
0
 10
170
 20
19.3553
 11
173
 21
19.3553
  0
LINE
  8
0
 10
173
 20
19.3553
 11
173
 21
51.3553
  0
LINE
  8
0
 10
173
 20
51.3553
 11
170
 21
51.3553
  0
LINE
  8
0
 10
170
 20
51.3553
 11
170
 21
43.3553
  0
LINE
  8
0
 10
170
 20
43.3553
 11
167
 21
43.3553
  0
LINE
  8
0
 10
167
 20
43.3553
 11
167
 21
51.3553
  0
LINE
  8
0
 10
167
 20
51.3553
 11
164
 21
51.3553
  0
LINE
  8
0
 10
164
 20
51.3553
 11
164
 21
19.3553
  0
LINE
  8
0
 10
164
 20
19.3553
 11
167
 21
19.3553
  0
LINE
  8
0
 10
167
 20
19.3553
 11
167
 21
27.3553
  0
LINE
  8
0
 10
157
 20
27.3553
 11
160
 21
27.3553
  0
LINE
  8
0
 10
160
 20
27.3553
 11
160
 21
19.3553
  0
LINE
  8
0
 10
160
 20
19.3553
 11
163
 21
19.3553
  0
LINE
  8
0
 10
163
 20
19.3553
 11
163
 21
51.3553
  0
LINE
  8
0
 10
163
 20
51.3553
 11
160
 21
51.3553
  0
LINE
  8
0
 10
160
 20
51.3553
 11
160
 21
43.3553
  0
LINE
  8
0
 10
160
 20
43.3553
 11
157
 21
43.3553
  0
LINE
  8
0
 10
157
 20
43.3553
 11
157
 21
51.3553
  0
LINE
  8
0
 10
157
 20
51.3553
 11
154
 21
51.3553
  0
LINE
  8
0
 10
154
 20
51.3553
 11
154
 21
19.3553
  0
LINE
  8
0
 10
154
 20
19.3553
 11
157
 21
19.3553
  0
LINE
  8
0
 10
157
 20
19.3553
 11
157
 21
27.3553
  0
LINE
  8
0
 10
147
 20
27.3553
 11
150
 21
27.3553
  0
LINE
  8
0
 10
150
 20
27.3553
 11
150
 21
19.3553
  0
LINE
  8
0
 10
150
 20
19.3553
 11
153
 21
19.3553
  0
LINE
  8
0
 10
153
 20
19.3553
 11
153
 21
51.3553
  0
LINE
  8
0
 10
153
 20
51.3553
 11
150
 21
51.3553
  0
LINE
  8
0
 10
150
 20
51.3553
 11
150
 21
43.3553
  0
LINE
  8
0
 10
150
 20
43.3553
 11
147
 21
43.3553
  0
LINE
  8
0
 10
147
 20
43.3553
 11
147
 21
51.3553
  0
LINE
  8
0
 10
147
 20
51.3553
 11
144
 21
51.3553
  0
LINE
  8
0
 10
144
 20
51.3553
 11
144
 21
19.3553
  0
LINE
  8
0
 10
144
 20
19.3553
 11
147
 21
19.3553
  0
LINE
  8
0
 10
147
 20
19.3553
 11
147
 21
27.3553
  0
LINE
  8
0
 10
107
 20
27.3553
 11
110
 21
27.3553
  0
LINE
  8
0
 10
110
 20
27.3553
 11
110
 21
19.3553
  0
LINE
  8
0
 10
110
 20
19.3553
 11
113
 21
19.3553
  0
LINE
  8
0
 10
113
 20
19.3553
 11
113
 21
51.3553
  0
LINE
  8
0
 10
113
 20
51.3553
 11
110
 21
51.3553
  0
LINE
  8
0
 10
110
 20
51.3553
 11
110
 21
43.3553
  0
LINE
  8
0
 10
110
 20
43.3553
 11
107
 21
43.3553
  0
LINE
  8
0
 10
107
 20
43.3553
 11
107
 21
51.3553
  0
LINE
  8
0
 10
107
 20
51.3553
 11
104
 21
51.3553
  0
LINE
  8
0
 10
104
 20
51.3553
 11
104
 21
19.3553
  0
LINE
  8
0
 10
104
 20
19.3553
 11
107
 21
19.3553
  0
LINE
  8
0
 10
107
 20
19.3553
 11
107
 21
27.3553
  0
LINE
  8
0
 10
67
 20
27.3553
 11
70
 21
27.3553
  0
LINE
  8
0
 10
70
 20
27.3553
 11
70
 21
19.3553
  0
LINE
  8
0
 10
70
 20
19.3553
 11
73
 21
19.3553
  0
LINE
  8
0
 10
73
 20
19.3553
 11
73
 21
51.3553
  0
LINE
  8
0
 10
73
 20
51.3553
 11
70
 21
51.3553
  0
LINE
  8
0
 10
70
 20
51.3553
 11
70
 21
43.3553
  0
LINE
  8
0
 10
70
 20
43.3553
 11
67
 21
43.3553
  0
LINE
  8
0
 10
67
 20
43.3553
 11
67
 21
51.3553
  0
LINE
  8
0
 10
67
 20
51.3553
 11
64
 21
51.3553
  0
LINE
  8
0
 10
64
 20
51.3553
 11
64
 21
19.3553
  0
LINE
  8
0
 10
64
 20
19.3553
 11
67
 21
19.3553
  0
LINE
  8
0
 10
67
 20
19.3553
 11
67
 21
27.3553
  0
LINE
  8
0
 10
127
 20
27.3553
 11
130
 21
27.3553
  0
LINE
  8
0
 10
130
 20
27.3553
 11
130
 21
19.3553
  0
LINE
  8
0
 10
130
 20
19.3553
 11
133
 21
19.3553
  0
LINE
  8
0
 10
133
 20
19.3553
 11
133
 21
51.3553
  0
LINE
  8
0
 10
133
 20
51.3553
 11
130
 21
51.3553
  0
LINE
  8
0
 10
130
 20
51.3553
 11
130
 21
43.3553
  0
LINE
  8
0
 10
130
 20
43.3553
 11
127
 21
43.3553
  0
LINE
  8
0
 10
127
 20
43.3553
 11
127
 21
51.3553
  0
LINE
  8
0
 10
127
 20
51.3553
 11
124
 21
51.3553
  0
LINE
  8
0
 10
124
 20
51.3553
 11
124
 21
19.3553
  0
LINE
  8
0
 10
124
 20
19.3553
 11
127
 21
19.3553
  0
LINE
  8
0
 10
127
 20
19.3553
 11
127
 21
27.3553
  0
LINE
  8
0
 10
57
 20
27.3553
 11
60
 21
27.3553
  0
LINE
  8
0
 10
60
 20
27.3553
 11
60
 21
19.3553
  0
LINE
  8
0
 10
60
 20
19.3553
 11
63
 21
19.3553
  0
LINE
  8
0
 10
63
 20
19.3553
 11
63
 21
51.3553
  0
LINE
  8
0
 10
63
 20
51.3553
 11
60
 21
51.3553
  0
LINE
  8
0
 10
60
 20
51.3553
 11
60
 21
43.3553
  0
LINE
  8
0
 10
60
 20
43.3553
 11
57
 21
43.3553
  0
LINE
  8
0
 10
57
 20
43.3553
 11
57
 21
51.3553
  0
LINE
  8
0
 10
57
 20
51.3553
 11
54
 21
51.3553
  0
LINE
  8
0
 10
54
 20
51.3553
 11
54
 21
19.3553
  0
LINE
  8
0
 10
54
 20
19.3553
 11
57
 21
19.3553
  0
LINE
  8
0
 10
57
 20
19.3553
 11
57
 21
27.3553
  0
LINE
  8
0
 10
47
 20
27.3553
 11
50
 21
27.3553
  0
LINE
  8
0
 10
50
 20
27.3553
 11
50
 21
19.3553
  0
LINE
  8
0
 10
50
 20
19.3553
 11
53
 21
19.3553
  0
LINE
  8
0
 10
53
 20
19.3553
 11
53
 21
51.3553
  0
LINE
  8
0
 10
53
 20
51.3553
 11
50
 21
51.3553
  0
LINE
  8
0
 10
50
 20
51.3553
 11
50
 21
43.3553
  0
LINE
  8
0
 10
50
 20
43.3553
 11
47
 21
43.3553
  0
LINE
  8
0
 10
47
 20
43.3553
 11
47
 21
51.3553
  0
LINE
  8
0
 10
47
 20
51.3553
 11
44
 21
51.3553
  0
LINE
  8
0
 10
44
 20
51.3553
 11
44
 21
19.3553
  0
LINE
  8
0
 10
44
 20
19.3553
 11
47
 21
19.3553
  0
LINE
  8
0
 10
47
 20
19.3553
 11
47
 21
27.3553
  0
LINE
  8
0
 10
117
 20
27.3553
 11
120
 21
27.3553
  0
LINE
  8
0
 10
120
 20
27.3553
 11
120
 21
19.3553
  0
LINE
  8
0
 10
120
 20
19.3553
 11
123
 21
19.3553
  0
LINE
  8
0
 10
123
 20
19.3553
 11
123
 21
51.3553
  0
LINE
  8
0
 10
123
 20
51.3553
 11
120
 21
51.3553
  0
LINE
  8
0
 10
120
 20
51.3553
 11
120
 21
43.3553
  0
LINE
  8
0
 10
120
 20
43.3553
 11
117
 21
43.3553
  0
LINE
  8
0
 10
117
 20
43.3553
 11
117
 21
51.3553
  0
LINE
  8
0
 10
117
 20
51.3553
 11
114
 21
51.3553
  0
LINE
  8
0
 10
114
 20
51.3553
 11
114
 21
19.3553
  0
LINE
  8
0
 10
114
 20
19.3553
 11
117
 21
19.3553
  0
LINE
  8
0
 10
117
 20
19.3553
 11
117
 21
27.3553
  0
LINE
  8
0
 10
-2.99998
 20
27.3553
 11
0
 21
27.3553
  0
LINE
  8
0
 10
0
 20
27.3553
 11
0
 21
19.3553
  0
LINE
  8
0
 10
0
 20
19.3553
 11
3
 21
19.3553
  0
LINE
  8
0
 10
3
 20
19.3553
 11
3
 21
51.3553
  0
LINE
  8
0
 10
3
 20
51.3553
 11
0
 21
51.3553
  0
LINE
  8
0
 10
0
 20
51.3553
 11
0
 21
43.3553
  0
LINE
  8
0
 10
0
 20
43.3553
 11
-2.99998
 21
43.3553
  0
LINE
  8
0
 10
-2.99998
 20
43.3553
 11
-2.99998
 21
51.3553
  0
LINE
  8
0
 10
-2.99998
 20
51.3553
 11
-5.99998
 21
51.3553
  0
LINE
  8
0
 10
-5.99998
 20
51.3553
 11
-5.99998
 21
19.3553
  0
LINE
  8
0
 10
-5.99998
 20
19.3553
 11
-2.99998
 21
19.3553
  0
LINE
  8
0
 10
-2.99998
 20
19.3553
 11
-2.99998
 21
27.3553
  0
LINE
  8
0
 10
7.00002
 20
27.3553
 11
10
 21
27.3553
  0
LINE
  8
0
 10
10
 20
27.3553
 11
10
 21
19.3553
  0
LINE
  8
0
 10
10
 20
19.3553
 11
13
 21
19.3553
  0
LINE
  8
0
 10
13
 20
19.3553
 11
13
 21
51.3553
  0
LINE
  8
0
 10
13
 20
51.3553
 11
10
 21
51.3553
  0
LINE
  8
0
 10
10
 20
51.3553
 11
10
 21
43.3553
  0
LINE
  8
0
 10
10
 20
43.3553
 11
7.00002
 21
43.3553
  0
LINE
  8
0
 10
7.00002
 20
43.3553
 11
7.00002
 21
51.3553
  0
LINE
  8
0
 10
7.00002
 20
51.3553
 11
4.00002
 21
51.3553
  0
LINE
  8
0
 10
4.00002
 20
51.3553
 11
4.00002
 21
19.3553
  0
LINE
  8
0
 10
4.00002
 20
19.3553
 11
7.00002
 21
19.3553
  0
LINE
  8
0
 10
7.00002
 20
19.3553
 11
7.00002
 21
27.3553
  0
LINE
  8
0
 10
37
 20
27.3553
 11
40
 21
27.3553
  0
LINE
  8
0
 10
40
 20
27.3553
 11
40
 21
19.3553
  0
LINE
  8
0
 10
40
 20
19.3553
 11
43
 21
19.3553
  0
LINE
  8
0
 10
43
 20
19.3553
 11
43
 21
51.3553
  0
LINE
  8
0
 10
43
 20
51.3553
 11
40
 21
51.3553
  0
LINE
  8
0
 10
40
 20
51.3553
 11
40
 21
43.3553
  0
LINE
  8
0
 10
40
 20
43.3553
 11
37
 21
43.3553
  0
LINE
  8
0
 10
37
 20
43.3553
 11
37
 21
51.3553
  0
LINE
  8
0
 10
37
 20
51.3553
 11
34
 21
51.3553
  0
LINE
  8
0
 10
34
 20
51.3553
 11
34
 21
19.3553
  0
LINE
  8
0
 10
34
 20
19.3553
 11
37
 21
19.3553
  0
LINE
  8
0
 10
37
 20
19.3553
 11
37
 21
27.3553
  0
LINE
  8
0
 10
17
 20
27.3553
 11
20
 21
27.3553
  0
LINE
  8
0
 10
20
 20
27.3553
 11
20
 21
19.3553
  0
LINE
  8
0
 10
20
 20
19.3553
 11
23
 21
19.3553
  0
LINE
  8
0
 10
23
 20
19.3553
 11
23
 21
51.3553
  0
LINE
  8
0
 10
23
 20
51.3553
 11
20
 21
51.3553
  0
LINE
  8
0
 10
20
 20
51.3553
 11
20
 21
43.3553
  0
LINE
  8
0
 10
20
 20
43.3553
 11
17
 21
43.3553
  0
LINE
  8
0
 10
17
 20
43.3553
 11
17
 21
51.3553
  0
LINE
  8
0
 10
17
 20
51.3553
 11
14
 21
51.3553
  0
LINE
  8
0
 10
14
 20
51.3553
 11
14
 21
19.3553
  0
LINE
  8
0
 10
14
 20
19.3553
 11
17
 21
19.3553
  0
LINE
  8
0
 10
17
 20
19.3553
 11
17
 21
27.3553
  0
LINE
  8
0
 10
27
 20
27.3553
 11
30
 21
27.3553
  0
LINE
  8
0
 10
30
 20
27.3553
 11
30
 21
19.3553
  0
LINE
  8
0
 10
30
 20
19.3553
 11
33
 21
19.3553
  0
LINE
  8
0
 10
33
 20
19.3553
 11
33
 21
51.3553
  0
LINE
  8
0
 10
33
 20
51.3553
 11
30
 21
51.3553
  0
LINE
  8
0
 10
30
 20
51.3553
 11
30
 21
43.3553
  0
LINE
  8
0
 10
30
 20
43.3553
 11
27
 21
43.3553
  0
LINE
  8
0
 10
27
 20
43.3553
 11
27
 21
51.3553
  0
LINE
  8
0
 10
27
 20
51.3553
 11
24
 21
51.3553
  0
LINE
  8
0
 10
24
 20
51.3553
 11
24
 21
19.3553
  0
LINE
  8
0
 10
24
 20
19.3553
 11
27
 21
19.3553
  0
LINE
  8
0
 10
27
 20
19.3553
 11
27
 21
27.3553
  0
LINE
  8
0
 10
77
 20
27.3553
 11
80
 21
27.3553
  0
LINE
  8
0
 10
80
 20
27.3553
 11
80
 21
19.3553
  0
LINE
  8
0
 10
80
 20
19.3553
 11
83
 21
19.3553
  0
LINE
  8
0
 10
83
 20
19.3553
 11
83
 21
51.3553
  0
LINE
  8
0
 10
83
 20
51.3553
 11
80
 21
51.3553
  0
LINE
  8
0
 10
80
 20
51.3553
 11
80
 21
43.3553
  0
LINE
  8
0
 10
80
 20
43.3553
 11
77
 21
43.3553
  0
LINE
  8
0
 10
77
 20
43.3553
 11
77
 21
51.3553
  0
LINE
  8
0
 10
77
 20
51.3553
 11
74
 21
51.3553
  0
LINE
  8
0
 10
74
 20
51.3553
 11
74
 21
19.3553
  0
LINE
  8
0
 10
74
 20
19.3553
 11
77
 21
19.3553
  0
LINE
  8
0
 10
77
 20
19.3553
 11
77
 21
27.3553
  0
LINE
  8
0
 10
87
 20
27.3553
 11
90
 21
27.3553
  0
LINE
  8
0
 10
90
 20
27.3553
 11
90
 21
19.3553
  0
LINE
  8
0
 10
90
 20
19.3553
 11
93
 21
19.3553
  0
LINE
  8
0
 10
93
 20
19.3553
 11
93
 21
51.3553
  0
LINE
  8
0
 10
93
 20
51.3553
 11
90
 21
51.3553
  0
LINE
  8
0
 10
90
 20
51.3553
 11
90
 21
43.3553
  0
LINE
  8
0
 10
90
 20
43.3553
 11
87
 21
43.3553
  0
LINE
  8
0
 10
87
 20
43.3553
 11
87
 21
51.3553
  0
LINE
  8
0
 10
87
 20
51.3553
 11
84
 21
51.3553
  0
LINE
  8
0
 10
84
 20
51.3553
 11
84
 21
19.3553
  0
LINE
  8
0
 10
84
 20
19.3553
 11
87
 21
19.3553
  0
LINE
  8
0
 10
87
 20
19.3553
 11
87
 21
27.3553
  0
LINE
  8
0
 10
137
 20
27.3553
 11
140
 21
27.3553
  0
LINE
  8
0
 10
140
 20
27.3553
 11
140
 21
19.3553
  0
LINE
  8
0
 10
140
 20
19.3553
 11
143
 21
19.3553
  0
LINE
  8
0
 10
143
 20
19.3553
 11
143
 21
51.3553
  0
LINE
  8
0
 10
143
 20
51.3553
 11
140
 21
51.3553
  0
LINE
  8
0
 10
140
 20
51.3553
 11
140
 21
43.3553
  0
LINE
  8
0
 10
140
 20
43.3553
 11
137
 21
43.3553
  0
LINE
  8
0
 10
137
 20
43.3553
 11
137
 21
51.3553
  0
LINE
  8
0
 10
137
 20
51.3553
 11
134
 21
51.3553
  0
LINE
  8
0
 10
134
 20
51.3553
 11
134
 21
19.3553
  0
LINE
  8
0
 10
134
 20
19.3553
 11
137
 21
19.3553
  0
LINE
  8
0
 10
137
 20
19.3553
 11
137
 21
27.3553
  0
LINE
  8
0
 10
97
 20
27.3553
 11
100
 21
27.3553
  0
LINE
  8
0
 10
100
 20
27.3553
 11
100
 21
19.3553
  0
LINE
  8
0
 10
100
 20
19.3553
 11
103
 21
19.3553
  0
LINE
  8
0
 10
103
 20
19.3553
 11
103
 21
51.3553
  0
LINE
  8
0
 10
103
 20
51.3553
 11
100
 21
51.3553
  0
LINE
  8
0
 10
100
 20
51.3553
 11
100
 21
43.3553
  0
LINE
  8
0
 10
100
 20
43.3553
 11
97
 21
43.3553
  0
LINE
  8
0
 10
97
 20
43.3553
 11
97
 21
51.3553
  0
LINE
  8
0
 10
97
 20
51.3553
 11
94
 21
51.3553
  0
LINE
  8
0
 10
94
 20
51.3553
 11
94
 21
19.3553
  0
LINE
  8
0
 10
94
 20
19.3553
 11
97
 21
19.3553
  0
LINE
  8
0
 10
97
 20
19.3553
 11
97
 21
27.3553
  0
LINE
  8
0
 10
653
 20
-32.1727
 11
653
 21
32.1727
  0
LINE
  8
0
 10
653
 20
32.1727
 11
637
 21
35.3553
  0
LINE
  8
0
 10
637
 20
35.3553
 11
637
 21
1.5
  0
LINE
  8
0
 10
637
 20
1.5
 11
645
 21
1.5
  0
LINE
  8
0
 10
645
 20
1.5
 11
645
 21
-1.5
  0
LINE
  8
0
 10
645
 20
-1.5
 11
637
 21
-1.5
  0
LINE
  8
0
 10
637
 20
-1.5
 11
637
 21
-35.3553
  0
LINE
  8
0
 10
637
 20
-35.3553
 11
653
 21
-32.1727
  0
LINE
  8
0
 10
648.497
 20
24.9117
 11
650.058
 21
32.758
  0
LINE
  8
0
 10
650.058
 20
32.758
 11
653
 21
32.1727
  0
LINE
  8
0
 10
653
 20
32.1727
 11
651.439
 21
24.3265
  0
LINE
  8
0
 10
651.439
 20
24.3265
 11
648.497
 21
24.9117
  0
LINE
  8
0
 10
648.497
 20
-24.9117
 11
651.439
 21
-24.3265
  0
LINE
  8
0
 10
651.439
 20
-24.3265
 11
653
 21
-32.1727
  0
LINE
  8
0
 10
653
 20
-32.1727
 11
650.058
 21
-32.758
  0
LINE
  8
0
 10
650.058
 20
-32.758
 11
648.497
 21
-24.9117
  0
LINE
  8
0
 10
636
 20
-32.1727
 11
636
 21
32.1727
  0
LINE
  8
0
 10
636
 20
32.1727
 11
620
 21
35.3553
  0
LINE
  8
0
 10
620
 20
35.3553
 11
620
 21
1.5
  0
LINE
  8
0
 10
620
 20
1.5
 11
628
 21
1.5
  0
LINE
  8
0
 10
628
 20
1.5
 11
628
 21
-1.5
  0
LINE
  8
0
 10
628
 20
-1.5
 11
620
 21
-1.5
  0
LINE
  8
0
 10
620
 20
-1.5
 11
620
 21
-35.3553
  0
LINE
  8
0
 10
620
 20
-35.3553
 11
636
 21
-32.1727
  0
LINE
  8
0
 10
631.497
 20
24.9117
 11
633.058
 21
32.758
  0
LINE
  8
0
 10
633.058
 20
32.758
 11
636
 21
32.1727
  0
LINE
  8
0
 10
636
 20
32.1727
 11
634.439
 21
24.3265
  0
LINE
  8
0
 10
634.439
 20
24.3265
 11
631.497
 21
24.9117
  0
LINE
  8
0
 10
631.497
 20
-24.9117
 11
634.439
 21
-24.3265
  0
LINE
  8
0
 10
634.439
 20
-24.3265
 11
636
 21
-32.1727
  0
LINE
  8
0
 10
636
 20
-32.1727
 11
633.058
 21
-32.758
  0
LINE
  8
0
 10
633.058
 20
-32.758
 11
631.497
 21
-24.9117
  0
LINE
  8
0
 10
500
 20
-32.1727
 11
500
 21
32.1727
  0
LINE
  8
0
 10
500
 20
32.1727
 11
484
 21
35.3553
  0
LINE
  8
0
 10
484
 20
35.3553
 11
484
 21
1.5
  0
LINE
  8
0
 10
484
 20
1.5
 11
492
 21
1.5
  0
LINE
  8
0
 10
492
 20
1.5
 11
492
 21
-1.5
  0
LINE
  8
0
 10
492
 20
-1.5
 11
484
 21
-1.5
  0
LINE
  8
0
 10
484
 20
-1.5
 11
484
 21
-35.3553
  0
LINE
  8
0
 10
484
 20
-35.3553
 11
500
 21
-32.1727
  0
LINE
  8
0
 10
495.497
 20
24.9117
 11
497.058
 21
32.758
  0
LINE
  8
0
 10
497.058
 20
32.758
 11
500
 21
32.1727
  0
LINE
  8
0
 10
500
 20
32.1727
 11
498.439
 21
24.3265
  0
LINE
  8
0
 10
498.439
 20
24.3265
 11
495.497
 21
24.9117
  0
LINE
  8
0
 10
495.497
 20
-24.9117
 11
498.439
 21
-24.3265
  0
LINE
  8
0
 10
498.439
 20
-24.3265
 11
500
 21
-32.1727
  0
LINE
  8
0
 10
500
 20
-32.1727
 11
497.058
 21
-32.758
  0
LINE
  8
0
 10
497.058
 20
-32.758
 11
495.497
 21
-24.9117
  0
LINE
  8
0
 10
483
 20
-32.1727
 11
483
 21
32.1727
  0
LINE
  8
0
 10
483
 20
32.1727
 11
467
 21
35.3553
  0
LINE
  8
0
 10
467
 20
35.3553
 11
467
 21
1.5
  0
LINE
  8
0
 10
467
 20
1.5
 11
475
 21
1.5
  0
LINE
  8
0
 10
475
 20
1.5
 11
475
 21
-1.5
  0
LINE
  8
0
 10
475
 20
-1.5
 11
467
 21
-1.5
  0
LINE
  8
0
 10
467
 20
-1.5
 11
467
 21
-35.3553
  0
LINE
  8
0
 10
467
 20
-35.3553
 11
483
 21
-32.1727
  0
LINE
  8
0
 10
478.497
 20
24.9117
 11
480.058
 21
32.758
  0
LINE
  8
0
 10
480.058
 20
32.758
 11
483
 21
32.1727
  0
LINE
  8
0
 10
483
 20
32.1727
 11
481.439
 21
24.3265
  0
LINE
  8
0
 10
481.439
 20
24.3265
 11
478.497
 21
24.9117
  0
LINE
  8
0
 10
478.497
 20
-24.9117
 11
481.439
 21
-24.3265
  0
LINE
  8
0
 10
481.439
 20
-24.3265
 11
483
 21
-32.1727
  0
LINE
  8
0
 10
483
 20
-32.1727
 11
480.058
 21
-32.758
  0
LINE
  8
0
 10
480.058
 20
-32.758
 11
478.497
 21
-24.9117
  0
LINE
  8
0
 10
619
 20
-32.1727
 11
619
 21
32.1727
  0
LINE
  8
0
 10
619
 20
32.1727
 11
603
 21
35.3553
  0
LINE
  8
0
 10
603
 20
35.3553
 11
603
 21
1.5
  0
LINE
  8
0
 10
603
 20
1.5
 11
611
 21
1.5
  0
LINE
  8
0
 10
611
 20
1.5
 11
611
 21
-1.5
  0
LINE
  8
0
 10
611
 20
-1.5
 11
603
 21
-1.5
  0
LINE
  8
0
 10
603
 20
-1.5
 11
603
 21
-35.3553
  0
LINE
  8
0
 10
603
 20
-35.3553
 11
619
 21
-32.1727
  0
LINE
  8
0
 10
614.497
 20
24.9117
 11
616.058
 21
32.758
  0
LINE
  8
0
 10
616.058
 20
32.758
 11
619
 21
32.1727
  0
LINE
  8
0
 10
619
 20
32.1727
 11
617.439
 21
24.3265
  0
LINE
  8
0
 10
617.439
 20
24.3265
 11
614.497
 21
24.9117
  0
LINE
  8
0
 10
614.497
 20
-24.9117
 11
617.439
 21
-24.3265
  0
LINE
  8
0
 10
617.439
 20
-24.3265
 11
619
 21
-32.1727
  0
LINE
  8
0
 10
619
 20
-32.1727
 11
616.058
 21
-32.758
  0
LINE
  8
0
 10
616.058
 20
-32.758
 11
614.497
 21
-24.9117
  0
LINE
  8
0
 10
534
 20
-32.1727
 11
534
 21
32.1727
  0
LINE
  8
0
 10
534
 20
32.1727
 11
518
 21
35.3553
  0
LINE
  8
0
 10
518
 20
35.3553
 11
518
 21
1.5
  0
LINE
  8
0
 10
518
 20
1.5
 11
526
 21
1.5
  0
LINE
  8
0
 10
526
 20
1.5
 11
526
 21
-1.5
  0
LINE
  8
0
 10
526
 20
-1.5
 11
518
 21
-1.5
  0
LINE
  8
0
 10
518
 20
-1.5
 11
518
 21
-35.3553
  0
LINE
  8
0
 10
518
 20
-35.3553
 11
534
 21
-32.1727
  0
LINE
  8
0
 10
529.497
 20
24.9117
 11
531.058
 21
32.758
  0
LINE
  8
0
 10
531.058
 20
32.758
 11
534
 21
32.1727
  0
LINE
  8
0
 10
534
 20
32.1727
 11
532.439
 21
24.3265
  0
LINE
  8
0
 10
532.439
 20
24.3265
 11
529.497
 21
24.9117
  0
LINE
  8
0
 10
529.497
 20
-24.9117
 11
532.439
 21
-24.3265
  0
LINE
  8
0
 10
532.439
 20
-24.3265
 11
534
 21
-32.1727
  0
LINE
  8
0
 10
534
 20
-32.1727
 11
531.058
 21
-32.758
  0
LINE
  8
0
 10
531.058
 20
-32.758
 11
529.497
 21
-24.9117
  0
LINE
  8
0
 10
602
 20
-32.1727
 11
602
 21
32.1727
  0
LINE
  8
0
 10
602
 20
32.1727
 11
586
 21
35.3553
  0
LINE
  8
0
 10
586
 20
35.3553
 11
586
 21
1.5
  0
LINE
  8
0
 10
586
 20
1.5
 11
594
 21
1.5
  0
LINE
  8
0
 10
594
 20
1.5
 11
594
 21
-1.5
  0
LINE
  8
0
 10
594
 20
-1.5
 11
586
 21
-1.5
  0
LINE
  8
0
 10
586
 20
-1.5
 11
586
 21
-35.3553
  0
LINE
  8
0
 10
586
 20
-35.3553
 11
602
 21
-32.1727
  0
LINE
  8
0
 10
597.497
 20
24.9117
 11
599.058
 21
32.758
  0
LINE
  8
0
 10
599.058
 20
32.758
 11
602
 21
32.1727
  0
LINE
  8
0
 10
602
 20
32.1727
 11
600.439
 21
24.3265
  0
LINE
  8
0
 10
600.439
 20
24.3265
 11
597.497
 21
24.9117
  0
LINE
  8
0
 10
597.497
 20
-24.9117
 11
600.439
 21
-24.3265
  0
LINE
  8
0
 10
600.439
 20
-24.3265
 11
602
 21
-32.1727
  0
LINE
  8
0
 10
602
 20
-32.1727
 11
599.058
 21
-32.758
  0
LINE
  8
0
 10
599.058
 20
-32.758
 11
597.497
 21
-24.9117
  0
LINE
  8
0
 10
466
 20
-32.1727
 11
466
 21
32.1727
  0
LINE
  8
0
 10
466
 20
32.1727
 11
450
 21
35.3553
  0
LINE
  8
0
 10
450
 20
35.3553
 11
450
 21
1.5
  0
LINE
  8
0
 10
450
 20
1.5
 11
458
 21
1.5
  0
LINE
  8
0
 10
458
 20
1.5
 11
458
 21
-1.5
  0
LINE
  8
0
 10
458
 20
-1.5
 11
450
 21
-1.5
  0
LINE
  8
0
 10
450
 20
-1.5
 11
450
 21
-35.3553
  0
LINE
  8
0
 10
450
 20
-35.3553
 11
466
 21
-32.1727
  0
LINE
  8
0
 10
461.497
 20
24.9117
 11
463.058
 21
32.758
  0
LINE
  8
0
 10
463.058
 20
32.758
 11
466
 21
32.1727
  0
LINE
  8
0
 10
466
 20
32.1727
 11
464.439
 21
24.3265
  0
LINE
  8
0
 10
464.439
 20
24.3265
 11
461.497
 21
24.9117
  0
LINE
  8
0
 10
461.497
 20
-24.9117
 11
464.439
 21
-24.3265
  0
LINE
  8
0
 10
464.439
 20
-24.3265
 11
466
 21
-32.1727
  0
LINE
  8
0
 10
466
 20
-32.1727
 11
463.058
 21
-32.758
  0
LINE
  8
0
 10
463.058
 20
-32.758
 11
461.497
 21
-24.9117
  0
LINE
  8
0
 10
585
 20
-32.1727
 11
585
 21
32.1727
  0
LINE
  8
0
 10
585
 20
32.1727
 11
569
 21
35.3553
  0
LINE
  8
0
 10
569
 20
35.3553
 11
569
 21
1.5
  0
LINE
  8
0
 10
569
 20
1.5
 11
577
 21
1.5
  0
LINE
  8
0
 10
577
 20
1.5
 11
577
 21
-1.5
  0
LINE
  8
0
 10
577
 20
-1.5
 11
569
 21
-1.5
  0
LINE
  8
0
 10
569
 20
-1.5
 11
569
 21
-35.3553
  0
LINE
  8
0
 10
569
 20
-35.3553
 11
585
 21
-32.1727
  0
LINE
  8
0
 10
580.497
 20
24.9117
 11
582.058
 21
32.758
  0
LINE
  8
0
 10
582.058
 20
32.758
 11
585
 21
32.1727
  0
LINE
  8
0
 10
585
 20
32.1727
 11
583.439
 21
24.3265
  0
LINE
  8
0
 10
583.439
 20
24.3265
 11
580.497
 21
24.9117
  0
LINE
  8
0
 10
580.497
 20
-24.9117
 11
583.439
 21
-24.3265
  0
LINE
  8
0
 10
583.439
 20
-24.3265
 11
585
 21
-32.1727
  0
LINE
  8
0
 10
585
 20
-32.1727
 11
582.058
 21
-32.758
  0
LINE
  8
0
 10
582.058
 20
-32.758
 11
580.497
 21
-24.9117
  0
LINE
  8
0
 10
517
 20
-32.1727
 11
517
 21
32.1727
  0
LINE
  8
0
 10
517
 20
32.1727
 11
501
 21
35.3553
  0
LINE
  8
0
 10
501
 20
35.3553
 11
501
 21
1.5
  0
LINE
  8
0
 10
501
 20
1.5
 11
509
 21
1.5
  0
LINE
  8
0
 10
509
 20
1.5
 11
509
 21
-1.5
  0
LINE
  8
0
 10
509
 20
-1.5
 11
501
 21
-1.5
  0
LINE
  8
0
 10
501
 20
-1.5
 11
501
 21
-35.3553
  0
LINE
  8
0
 10
501
 20
-35.3553
 11
517
 21
-32.1727
  0
LINE
  8
0
 10
512.497
 20
24.9117
 11
514.058
 21
32.758
  0
LINE
  8
0
 10
514.058
 20
32.758
 11
517
 21
32.1727
  0
LINE
  8
0
 10
517
 20
32.1727
 11
515.439
 21
24.3265
  0
LINE
  8
0
 10
515.439
 20
24.3265
 11
512.497
 21
24.9117
  0
LINE
  8
0
 10
512.497
 20
-24.9117
 11
515.439
 21
-24.3265
  0
LINE
  8
0
 10
515.439
 20
-24.3265
 11
517
 21
-32.1727
  0
LINE
  8
0
 10
517
 20
-32.1727
 11
514.058
 21
-32.758
  0
LINE
  8
0
 10
514.058
 20
-32.758
 11
512.497
 21
-24.9117
  0
LINE
  8
0
 10
551
 20
-32.1727
 11
551
 21
32.1727
  0
LINE
  8
0
 10
551
 20
32.1727
 11
535
 21
35.3553
  0
LINE
  8
0
 10
535
 20
35.3553
 11
535
 21
1.5
  0
LINE
  8
0
 10
535
 20
1.5
 11
543
 21
1.5
  0
LINE
  8
0
 10
543
 20
1.5
 11
543
 21
-1.5
  0
LINE
  8
0
 10
543
 20
-1.5
 11
535
 21
-1.5
  0
LINE
  8
0
 10
535
 20
-1.5
 11
535
 21
-35.3553
  0
LINE
  8
0
 10
535
 20
-35.3553
 11
551
 21
-32.1727
  0
LINE
  8
0
 10
546.497
 20
24.9117
 11
548.058
 21
32.758
  0
LINE
  8
0
 10
548.058
 20
32.758
 11
551
 21
32.1727
  0
LINE
  8
0
 10
551
 20
32.1727
 11
549.439
 21
24.3265
  0
LINE
  8
0
 10
549.439
 20
24.3265
 11
546.497
 21
24.9117
  0
LINE
  8
0
 10
546.497
 20
-24.9117
 11
549.439
 21
-24.3265
  0
LINE
  8
0
 10
549.439
 20
-24.3265
 11
551
 21
-32.1727
  0
LINE
  8
0
 10
551
 20
-32.1727
 11
548.058
 21
-32.758
  0
LINE
  8
0
 10
548.058
 20
-32.758
 11
546.497
 21
-24.9117
  0
LINE
  8
0
 10
568
 20
-32.1727
 11
568
 21
32.1727
  0
LINE
  8
0
 10
568
 20
32.1727
 11
552
 21
35.3553
  0
LINE
  8
0
 10
552
 20
35.3553
 11
552
 21
1.5
  0
LINE
  8
0
 10
552
 20
1.5
 11
560
 21
1.5
  0
LINE
  8
0
 10
560
 20
1.5
 11
560
 21
-1.5
  0
LINE
  8
0
 10
560
 20
-1.5
 11
552
 21
-1.5
  0
LINE
  8
0
 10
552
 20
-1.5
 11
552
 21
-35.3553
  0
LINE
  8
0
 10
552
 20
-35.3553
 11
568
 21
-32.1727
  0
LINE
  8
0
 10
563.497
 20
24.9117
 11
565.058
 21
32.758
  0
LINE
  8
0
 10
565.058
 20
32.758
 11
568
 21
32.1727
  0
LINE
  8
0
 10
568
 20
32.1727
 11
566.439
 21
24.3265
  0
LINE
  8
0
 10
566.439
 20
24.3265
 11
563.497
 21
24.9117
  0
LINE
  8
0
 10
563.497
 20
-24.9117
 11
566.439
 21
-24.3265
  0
LINE
  8
0
 10
566.439
 20
-24.3265
 11
568
 21
-32.1727
  0
LINE
  8
0
 10
568
 20
-32.1727
 11
565.058
 21
-32.758
  0
LINE
  8
0
 10
565.058
 20
-32.758
 11
563.497
 21
-24.9117
  0
LINE
  8
0
 10
1027
 20
-21.8174
 11
1027
 21
18.3726
  0
LINE
  8
0
 10
1027
 20
18.3726
 11
1011
 21
25
  0
LINE
  8
0
 10
1011
 20
25
 11
1011
 21
1.5
  0
LINE
  8
0
 10
1011
 20
1.5
 11
1019
 21
1.5
  0
LINE
  8
0
 10
1019
 20
1.5
 11
1019
 21
-1.5
  0
LINE
  8
0
 10
1019
 20
-1.5
 11
1011
 21
-1.5
  0
LINE
  8
0
 10
1011
 20
-1.5
 11
1011
 21
-25
  0
LINE
  8
0
 10
1011
 20
-25
 11
1027
 21
-21.8174
  0
LINE
  8
0
 10
1021.17
 20
12.1296
 11
1024.23
 21
19.5206
  0
LINE
  8
0
 10
1024.23
 20
19.5206
 11
1027
 21
18.3726
  0
LINE
  8
0
 10
1027
 20
18.3726
 11
1023.94
 21
10.9816
  0
LINE
  8
0
 10
1023.94
 20
10.9816
 11
1021.17
 21
12.1296
  0
LINE
  8
0
 10
1022.5
 20
-14.5564
 11
1025.44
 21
-13.9711
  0
LINE
  8
0
 10
1025.44
 20
-13.9711
 11
1027
 21
-21.8174
  0
LINE
  8
0
 10
1027
 20
-21.8174
 11
1024.06
 21
-22.4027
  0
LINE
  8
0
 10
1024.06
 20
-22.4027
 11
1022.5
 21
-14.5564
  0
LINE
  8
0
 10
1010
 20
-21.8174
 11
1010
 21
18.3726
  0
LINE
  8
0
 10
1010
 20
18.3726
 11
994
 21
25
  0
LINE
  8
0
 10
994
 20
25
 11
994
 21
1.5
  0
LINE
  8
0
 10
994
 20
1.5
 11
1002
 21
1.5
  0
LINE
  8
0
 10
1002
 20
1.5
 11
1002
 21
-1.5
  0
LINE
  8
0
 10
1002
 20
-1.5
 11
994
 21
-1.5
  0
LINE
  8
0
 10
994
 20
-1.5
 11
994
 21
-25
  0
LINE
  8
0
 10
994
 20
-25
 11
1010
 21
-21.8174
  0
LINE
  8
0
 10
1004.17
 20
12.1296
 11
1007.23
 21
19.5206
  0
LINE
  8
0
 10
1007.23
 20
19.5206
 11
1010
 21
18.3726
  0
LINE
  8
0
 10
1010
 20
18.3726
 11
1006.94
 21
10.9816
  0
LINE
  8
0
 10
1006.94
 20
10.9816
 11
1004.17
 21
12.1296
  0
LINE
  8
0
 10
1005.5
 20
-14.5564
 11
1008.44
 21
-13.9711
  0
LINE
  8
0
 10
1008.44
 20
-13.9711
 11
1010
 21
-21.8174
  0
LINE
  8
0
 10
1010
 20
-21.8174
 11
1007.06
 21
-22.4027
  0
LINE
  8
0
 10
1007.06
 20
-22.4027
 11
1005.5
 21
-14.5564
  0
LINE
  8
0
 10
1044
 20
-21.8174
 11
1044
 21
18.3726
  0
LINE
  8
0
 10
1044
 20
18.3726
 11
1028
 21
25
  0
LINE
  8
0
 10
1028
 20
25
 11
1028
 21
1.5
  0
LINE
  8
0
 10
1028
 20
1.5
 11
1036
 21
1.5
  0
LINE
  8
0
 10
1036
 20
1.5
 11
1036
 21
-1.5
  0
LINE
  8
0
 10
1036
 20
-1.5
 11
1028
 21
-1.5
  0
LINE
  8
0
 10
1028
 20
-1.5
 11
1028
 21
-25
  0
LINE
  8
0
 10
1028
 20
-25
 11
1044
 21
-21.8174
  0
LINE
  8
0
 10
1038.17
 20
12.1296
 11
1041.23
 21
19.5206
  0
LINE
  8
0
 10
1041.23
 20
19.5206
 11
1044
 21
18.3726
  0
LINE
  8
0
 10
1044
 20
18.3726
 11
1040.94
 21
10.9816
  0
LINE
  8
0
 10
1040.94
 20
10.9816
 11
1038.17
 21
12.1296
  0
LINE
  8
0
 10
1039.5
 20
-14.5564
 11
1042.44
 21
-13.9711
  0
LINE
  8
0
 10
1042.44
 20
-13.9711
 11
1044
 21
-21.8174
  0
LINE
  8
0
 10
1044
 20
-21.8174
 11
1041.06
 21
-22.4027
  0
LINE
  8
0
 10
1041.06
 20
-22.4027
 11
1039.5
 21
-14.5564
  0
LINE
  8
0
 10
670
 20
-21.8174
 11
670
 21
18.3726
  0
LINE
  8
0
 10
670
 20
18.3726
 11
654
 21
25
  0
LINE
  8
0
 10
654
 20
25
 11
654
 21
1.5
  0
LINE
  8
0
 10
654
 20
1.5
 11
662
 21
1.5
  0
LINE
  8
0
 10
662
 20
1.5
 11
662
 21
-1.5
  0
LINE
  8
0
 10
662
 20
-1.5
 11
654
 21
-1.5
  0
LINE
  8
0
 10
654
 20
-1.5
 11
654
 21
-25
  0
LINE
  8
0
 10
654
 20
-25
 11
670
 21
-21.8174
  0
LINE
  8
0
 10
664.167
 20
12.1296
 11
667.228
 21
19.5206
  0
LINE
  8
0
 10
667.228
 20
19.5206
 11
670
 21
18.3726
  0
LINE
  8
0
 10
670
 20
18.3726
 11
666.939
 21
10.9816
  0
LINE
  8
0
 10
666.939
 20
10.9816
 11
664.167
 21
12.1296
  0
LINE
  8
0
 10
665.497
 20
-14.5564
 11
668.439
 21
-13.9711
  0
LINE
  8
0
 10
668.439
 20
-13.9711
 11
670
 21
-21.8174
  0
LINE
  8
0
 10
670
 20
-21.8174
 11
667.058
 21
-22.4027
  0
LINE
  8
0
 10
667.058
 20
-22.4027
 11
665.497
 21
-14.5564
  0
LINE
  8
0
 10
993
 20
-21.8174
 11
993
 21
18.3726
  0
LINE
  8
0
 10
993
 20
18.3726
 11
977
 21
25
  0
LINE
  8
0
 10
977
 20
25
 11
977
 21
1.5
  0
LINE
  8
0
 10
977
 20
1.5
 11
985
 21
1.5
  0
LINE
  8
0
 10
985
 20
1.5
 11
985
 21
-1.5
  0
LINE
  8
0
 10
985
 20
-1.5
 11
977
 21
-1.5
  0
LINE
  8
0
 10
977
 20
-1.5
 11
977
 21
-25
  0
LINE
  8
0
 10
977
 20
-25
 11
993
 21
-21.8174
  0
LINE
  8
0
 10
987.167
 20
12.1296
 11
990.228
 21
19.5206
  0
LINE
  8
0
 10
990.228
 20
19.5206
 11
993
 21
18.3726
  0
LINE
  8
0
 10
993
 20
18.3726
 11
989.939
 21
10.9816
  0
LINE
  8
0
 10
989.939
 20
10.9816
 11
987.167
 21
12.1296
  0
LINE
  8
0
 10
988.497
 20
-14.5564
 11
991.439
 21
-13.9711
  0
LINE
  8
0
 10
991.439
 20
-13.9711
 11
993
 21
-21.8174
  0
LINE
  8
0
 10
993
 20
-21.8174
 11
990.058
 21
-22.4027
  0
LINE
  8
0
 10
990.058
 20
-22.4027
 11
988.497
 21
-14.5564
  0
LINE
  8
0
 10
687
 20
-18.3726
 11
687
 21
21.8174
  0
LINE
  8
0
 10
687
 20
21.8174
 11
671
 21
25
  0
LINE
  8
0
 10
671
 20
25
 11
671
 21
1.5
  0
LINE
  8
0
 10
671
 20
1.5
 11
679
 21
1.5
  0
LINE
  8
0
 10
679
 20
1.5
 11
679
 21
-1.5
  0
LINE
  8
0
 10
679
 20
-1.5
 11
671
 21
-1.5
  0
LINE
  8
0
 10
671
 20
-1.5
 11
671
 21
-25
  0
LINE
  8
0
 10
671
 20
-25
 11
687
 21
-18.3726
  0
LINE
  8
0
 10
682.497
 20
14.5564
 11
684.058
 21
22.4027
  0
LINE
  8
0
 10
684.058
 20
22.4027
 11
687
 21
21.8174
  0
LINE
  8
0
 10
687
 20
21.8174
 11
685.439
 21
13.9711
  0
LINE
  8
0
 10
685.439
 20
13.9711
 11
682.497
 21
14.5564
  0
LINE
  8
0
 10
681.167
 20
-12.1296
 11
683.939
 21
-10.9816
  0
LINE
  8
0
 10
683.939
 20
-10.9816
 11
687
 21
-18.3726
  0
LINE
  8
0
 10
687
 20
-18.3726
 11
684.228
 21
-19.5206
  0
LINE
  8
0
 10
684.228
 20
-19.5206
 11
681.167
 21
-12.1296
  0
LINE
  8
0
 10
976
 20
-21.8174
 11
976
 21
18.3726
  0
LINE
  8
0
 10
976
 20
18.3726
 11
960
 21
25
  0
LINE
  8
0
 10
960
 20
25
 11
960
 21
1.5
  0
LINE
  8
0
 10
960
 20
1.5
 11
968
 21
1.5
  0
LINE
  8
0
 10
968
 20
1.5
 11
968
 21
-1.5
  0
LINE
  8
0
 10
968
 20
-1.5
 11
960
 21
-1.5
  0
LINE
  8
0
 10
960
 20
-1.5
 11
960
 21
-25
  0
LINE
  8
0
 10
960
 20
-25
 11
976
 21
-21.8174
  0
LINE
  8
0
 10
970.167
 20
12.1296
 11
973.228
 21
19.5206
  0
LINE
  8
0
 10
973.228
 20
19.5206
 11
976
 21
18.3726
  0
LINE
  8
0
 10
976
 20
18.3726
 11
972.939
 21
10.9816
  0
LINE
  8
0
 10
972.939
 20
10.9816
 11
970.167
 21
12.1296
  0
LINE
  8
0
 10
971.497
 20
-14.5564
 11
974.439
 21
-13.9711
  0
LINE
  8
0
 10
974.439
 20
-13.9711
 11
976
 21
-21.8174
  0
LINE
  8
0
 10
976
 20
-21.8174
 11
973.058
 21
-22.4027
  0
LINE
  8
0
 10
973.058
 20
-22.4027
 11
971.497
 21
-14.5564
  0
LINE
  8
0
 10
1061
 20
-18.3726
 11
1061
 21
21.8174
  0
LINE
  8
0
 10
1061
 20
21.8174
 11
1045
 21
25
  0
LINE
  8
0
 10
1045
 20
25
 11
1045
 21
1.5
  0
LINE
  8
0
 10
1045
 20
1.5
 11
1053
 21
1.5
  0
LINE
  8
0
 10
1053
 20
1.5
 11
1053
 21
-1.5
  0
LINE
  8
0
 10
1053
 20
-1.5
 11
1045
 21
-1.5
  0
LINE
  8
0
 10
1045
 20
-1.5
 11
1045
 21
-25
  0
LINE
  8
0
 10
1045
 20
-25
 11
1061
 21
-18.3726
  0
LINE
  8
0
 10
1056.5
 20
14.5564
 11
1058.06
 21
22.4027
  0
LINE
  8
0
 10
1058.06
 20
22.4027
 11
1061
 21
21.8174
  0
LINE
  8
0
 10
1061
 20
21.8174
 11
1059.44
 21
13.9711
  0
LINE
  8
0
 10
1059.44
 20
13.9711
 11
1056.5
 21
14.5564
  0
LINE
  8
0
 10
1055.17
 20
-12.1296
 11
1057.94
 21
-10.9816
  0
LINE
  8
0
 10
1057.94
 20
-10.9816
 11
1061
 21
-18.3726
  0
LINE
  8
0
 10
1061
 20
-18.3726
 11
1058.23
 21
-19.5206
  0
LINE
  8
0
 10
1058.23
 20
-19.5206
 11
1055.17
 21
-12.1296
  0
LINE
  8
0
 10
806
 20
-21.8174
 11
806
 21
18.3726
  0
LINE
  8
0
 10
806
 20
18.3726
 11
790
 21
25
  0
LINE
  8
0
 10
790
 20
25
 11
790
 21
1.5
  0
LINE
  8
0
 10
790
 20
1.5
 11
798
 21
1.5
  0
LINE
  8
0
 10
798
 20
1.5
 11
798
 21
-1.5
  0
LINE
  8
0
 10
798
 20
-1.5
 11
790
 21
-1.5
  0
LINE
  8
0
 10
790
 20
-1.5
 11
790
 21
-25
  0
LINE
  8
0
 10
790
 20
-25
 11
806
 21
-21.8174
  0
LINE
  8
0
 10
800.167
 20
12.1296
 11
803.228
 21
19.5206
  0
LINE
  8
0
 10
803.228
 20
19.5206
 11
806
 21
18.3726
  0
LINE
  8
0
 10
806
 20
18.3726
 11
802.939
 21
10.9816
  0
LINE
  8
0
 10
802.939
 20
10.9816
 11
800.167
 21
12.1296
  0
LINE
  8
0
 10
801.497
 20
-14.5564
 11
804.439
 21
-13.9711
  0
LINE
  8
0
 10
804.439
 20
-13.9711
 11
806
 21
-21.8174
  0
LINE
  8
0
 10
806
 20
-21.8174
 11
803.058
 21
-22.4027
  0
LINE
  8
0
 10
803.058
 20
-22.4027
 11
801.497
 21
-14.5564
  0
LINE
  8
0
 10
823
 20
-21.8174
 11
823
 21
18.3726
  0
LINE
  8
0
 10
823
 20
18.3726
 11
807
 21
25
  0
LINE
  8
0
 10
807
 20
25
 11
807
 21
1.5
  0
LINE
  8
0
 10
807
 20
1.5
 11
815
 21
1.5
  0
LINE
  8
0
 10
815
 20
1.5
 11
815
 21
-1.5
  0
LINE
  8
0
 10
815
 20
-1.5
 11
807
 21
-1.5
  0
LINE
  8
0
 10
807
 20
-1.5
 11
807
 21
-25
  0
LINE
  8
0
 10
807
 20
-25
 11
823
 21
-21.8174
  0
LINE
  8
0
 10
817.167
 20
12.1296
 11
820.228
 21
19.5206
  0
LINE
  8
0
 10
820.228
 20
19.5206
 11
823
 21
18.3726
  0
LINE
  8
0
 10
823
 20
18.3726
 11
819.939
 21
10.9816
  0
LINE
  8
0
 10
819.939
 20
10.9816
 11
817.167
 21
12.1296
  0
LINE
  8
0
 10
818.497
 20
-14.5564
 11
821.439
 21
-13.9711
  0
LINE
  8
0
 10
821.439
 20
-13.9711
 11
823
 21
-21.8174
  0
LINE
  8
0
 10
823
 20
-21.8174
 11
820.058
 21
-22.4027
  0
LINE
  8
0
 10
820.058
 20
-22.4027
 11
818.497
 21
-14.5564
  0
LINE
  8
0
 10
789
 20
-21.8174
 11
789
 21
18.3726
  0
LINE
  8
0
 10
789
 20
18.3726
 11
773
 21
25
  0
LINE
  8
0
 10
773
 20
25
 11
773
 21
1.5
  0
LINE
  8
0
 10
773
 20
1.5
 11
781
 21
1.5
  0
LINE
  8
0
 10
781
 20
1.5
 11
781
 21
-1.5
  0
LINE
  8
0
 10
781
 20
-1.5
 11
773
 21
-1.5
  0
LINE
  8
0
 10
773
 20
-1.5
 11
773
 21
-25
  0
LINE
  8
0
 10
773
 20
-25
 11
789
 21
-21.8174
  0
LINE
  8
0
 10
783.167
 20
12.1296
 11
786.228
 21
19.5206
  0
LINE
  8
0
 10
786.228
 20
19.5206
 11
789
 21
18.3726
  0
LINE
  8
0
 10
789
 20
18.3726
 11
785.939
 21
10.9816
  0
LINE
  8
0
 10
785.939
 20
10.9816
 11
783.167
 21
12.1296
  0
LINE
  8
0
 10
784.497
 20
-14.5564
 11
787.439
 21
-13.9711
  0
LINE
  8
0
 10
787.439
 20
-13.9711
 11
789
 21
-21.8174
  0
LINE
  8
0
 10
789
 20
-21.8174
 11
786.058
 21
-22.4027
  0
LINE
  8
0
 10
786.058
 20
-22.4027
 11
784.497
 21
-14.5564
  0
LINE
  8
0
 10
840
 20
-21.8174
 11
840
 21
18.3726
  0
LINE
  8
0
 10
840
 20
18.3726
 11
824
 21
25
  0
LINE
  8
0
 10
824
 20
25
 11
824
 21
1.5
  0
LINE
  8
0
 10
824
 20
1.5
 11
832
 21
1.5
  0
LINE
  8
0
 10
832
 20
1.5
 11
832
 21
-1.5
  0
LINE
  8
0
 10
832
 20
-1.5
 11
824
 21
-1.5
  0
LINE
  8
0
 10
824
 20
-1.5
 11
824
 21
-25
  0
LINE
  8
0
 10
824
 20
-25
 11
840
 21
-21.8174
  0
LINE
  8
0
 10
834.167
 20
12.1296
 11
837.228
 21
19.5206
  0
LINE
  8
0
 10
837.228
 20
19.5206
 11
840
 21
18.3726
  0
LINE
  8
0
 10
840
 20
18.3726
 11
836.939
 21
10.9816
  0
LINE
  8
0
 10
836.939
 20
10.9816
 11
834.167
 21
12.1296
  0
LINE
  8
0
 10
835.497
 20
-14.5564
 11
838.439
 21
-13.9711
  0
LINE
  8
0
 10
838.439
 20
-13.9711
 11
840
 21
-21.8174
  0
LINE
  8
0
 10
840
 20
-21.8174
 11
837.058
 21
-22.4027
  0
LINE
  8
0
 10
837.058
 20
-22.4027
 11
835.497
 21
-14.5564
  0
LINE
  8
0
 10
857
 20
-21.8174
 11
857
 21
18.3726
  0
LINE
  8
0
 10
857
 20
18.3726
 11
841
 21
25
  0
LINE
  8
0
 10
841
 20
25
 11
841
 21
1.5
  0
LINE
  8
0
 10
841
 20
1.5
 11
849
 21
1.5
  0
LINE
  8
0
 10
849
 20
1.5
 11
849
 21
-1.5
  0
LINE
  8
0
 10
849
 20
-1.5
 11
841
 21
-1.5
  0
LINE
  8
0
 10
841
 20
-1.5
 11
841
 21
-25
  0
LINE
  8
0
 10
841
 20
-25
 11
857
 21
-21.8174
  0
LINE
  8
0
 10
851.167
 20
12.1296
 11
854.228
 21
19.5206
  0
LINE
  8
0
 10
854.228
 20
19.5206
 11
857
 21
18.3726
  0
LINE
  8
0
 10
857
 20
18.3726
 11
853.939
 21
10.9816
  0
LINE
  8
0
 10
853.939
 20
10.9816
 11
851.167
 21
12.1296
  0
LINE
  8
0
 10
852.497
 20
-14.5564
 11
855.439
 21
-13.9711
  0
LINE
  8
0
 10
855.439
 20
-13.9711
 11
857
 21
-21.8174
  0
LINE
  8
0
 10
857
 20
-21.8174
 11
854.058
 21
-22.4027
  0
LINE
  8
0
 10
854.058
 20
-22.4027
 11
852.497
 21
-14.5564
  0
LINE
  8
0
 10
772
 20
-21.8174
 11
772
 21
18.3726
  0
LINE
  8
0
 10
772
 20
18.3726
 11
756
 21
25
  0
LINE
  8
0
 10
756
 20
25
 11
756
 21
1.5
  0
LINE
  8
0
 10
756
 20
1.5
 11
764
 21
1.5
  0
LINE
  8
0
 10
764
 20
1.5
 11
764
 21
-1.5
  0
LINE
  8
0
 10
764
 20
-1.5
 11
756
 21
-1.5
  0
LINE
  8
0
 10
756
 20
-1.5
 11
756
 21
-25
  0
LINE
  8
0
 10
756
 20
-25
 11
772
 21
-21.8174
  0
LINE
  8
0
 10
766.167
 20
12.1296
 11
769.228
 21
19.5206
  0
LINE
  8
0
 10
769.228
 20
19.5206
 11
772
 21
18.3726
  0
LINE
  8
0
 10
772
 20
18.3726
 11
768.939
 21
10.9816
  0
LINE
  8
0
 10
768.939
 20
10.9816
 11
766.167
 21
12.1296
  0
LINE
  8
0
 10
767.497
 20
-14.5564
 11
770.439
 21
-13.9711
  0
LINE
  8
0
 10
770.439
 20
-13.9711
 11
772
 21
-21.8174
  0
LINE
  8
0
 10
772
 20
-21.8174
 11
769.058
 21
-22.4027
  0
LINE
  8
0
 10
769.058
 20
-22.4027
 11
767.497
 21
-14.5564
  0
LINE
  8
0
 10
874
 20
-18.3726
 11
874
 21
21.8174
  0
LINE
  8
0
 10
874
 20
21.8174
 11
858
 21
25
  0
LINE
  8
0
 10
858
 20
25
 11
858
 21
1.5
  0
LINE
  8
0
 10
858
 20
1.5
 11
866
 21
1.5
  0
LINE
  8
0
 10
866
 20
1.5
 11
866
 21
-1.5
  0
LINE
  8
0
 10
866
 20
-1.5
 11
858
 21
-1.5
  0
LINE
  8
0
 10
858
 20
-1.5
 11
858
 21
-25
  0
LINE
  8
0
 10
858
 20
-25
 11
874
 21
-18.3726
  0
LINE
  8
0
 10
869.497
 20
14.5564
 11
871.058
 21
22.4027
  0
LINE
  8
0
 10
871.058
 20
22.4027
 11
874
 21
21.8174
  0
LINE
  8
0
 10
874
 20
21.8174
 11
872.439
 21
13.9711
  0
LINE
  8
0
 10
872.439
 20
13.9711
 11
869.497
 21
14.5564
  0
LINE
  8
0
 10
868.167
 20
-12.1296
 11
870.939
 21
-10.9816
  0
LINE
  8
0
 10
870.939
 20
-10.9816
 11
874
 21
-18.3726
  0
LINE
  8
0
 10
874
 20
-18.3726
 11
871.228
 21
-19.5206
  0
LINE
  8
0
 10
871.228
 20
-19.5206
 11
868.167
 21
-12.1296
  0
LINE
  8
0
 10
755
 20
-18.3726
 11
755
 21
21.8174
  0
LINE
  8
0
 10
755
 20
21.8174
 11
739
 21
25
  0
LINE
  8
0
 10
739
 20
25
 11
739
 21
1.5
  0
LINE
  8
0
 10
739
 20
1.5
 11
747
 21
1.5
  0
LINE
  8
0
 10
747
 20
1.5
 11
747
 21
-1.5
  0
LINE
  8
0
 10
747
 20
-1.5
 11
739
 21
-1.5
  0
LINE
  8
0
 10
739
 20
-1.5
 11
739
 21
-25
  0
LINE
  8
0
 10
739
 20
-25
 11
755
 21
-18.3726
  0
LINE
  8
0
 10
750.497
 20
14.5564
 11
752.058
 21
22.4027
  0
LINE
  8
0
 10
752.058
 20
22.4027
 11
755
 21
21.8174
  0
LINE
  8
0
 10
755
 20
21.8174
 11
753.439
 21
13.9711
  0
LINE
  8
0
 10
753.439
 20
13.9711
 11
750.497
 21
14.5564
  0
LINE
  8
0
 10
749.167
 20
-12.1296
 11
751.939
 21
-10.9816
  0
LINE
  8
0
 10
751.939
 20
-10.9816
 11
755
 21
-18.3726
  0
LINE
  8
0
 10
755
 20
-18.3726
 11
752.228
 21
-19.5206
  0
LINE
  8
0
 10
752.228
 20
-19.5206
 11
749.167
 21
-12.1296
  0
LINE
  8
0
 10
891
 20
-18.3726
 11
891
 21
21.8174
  0
LINE
  8
0
 10
891
 20
21.8174
 11
875
 21
25
  0
LINE
  8
0
 10
875
 20
25
 11
875
 21
1.5
  0
LINE
  8
0
 10
875
 20
1.5
 11
883
 21
1.5
  0
LINE
  8
0
 10
883
 20
1.5
 11
883
 21
-1.5
  0
LINE
  8
0
 10
883
 20
-1.5
 11
875
 21
-1.5
  0
LINE
  8
0
 10
875
 20
-1.5
 11
875
 21
-25
  0
LINE
  8
0
 10
875
 20
-25
 11
891
 21
-18.3726
  0
LINE
  8
0
 10
886.497
 20
14.5564
 11
888.058
 21
22.4027
  0
LINE
  8
0
 10
888.058
 20
22.4027
 11
891
 21
21.8174
  0
LINE
  8
0
 10
891
 20
21.8174
 11
889.439
 21
13.9711
  0
LINE
  8
0
 10
889.439
 20
13.9711
 11
886.497
 21
14.5564
  0
LINE
  8
0
 10
885.167
 20
-12.1296
 11
887.939
 21
-10.9816
  0
LINE
  8
0
 10
887.939
 20
-10.9816
 11
891
 21
-18.3726
  0
LINE
  8
0
 10
891
 20
-18.3726
 11
888.228
 21
-19.5206
  0
LINE
  8
0
 10
888.228
 20
-19.5206
 11
885.167
 21
-12.1296
  0
LINE
  8
0
 10
908
 20
-18.3726
 11
908
 21
21.8174
  0
LINE
  8
0
 10
908
 20
21.8174
 11
892
 21
25
  0
LINE
  8
0
 10
892
 20
25
 11
892
 21
1.5
  0
LINE
  8
0
 10
892
 20
1.5
 11
900
 21
1.5
  0
LINE
  8
0
 10
900
 20
1.5
 11
900
 21
-1.5
  0
LINE
  8
0
 10
900
 20
-1.5
 11
892
 21
-1.5
  0
LINE
  8
0
 10
892
 20
-1.5
 11
892
 21
-25
  0
LINE
  8
0
 10
892
 20
-25
 11
908
 21
-18.3726
  0
LINE
  8
0
 10
903.497
 20
14.5564
 11
905.058
 21
22.4027
  0
LINE
  8
0
 10
905.058
 20
22.4027
 11
908
 21
21.8174
  0
LINE
  8
0
 10
908
 20
21.8174
 11
906.439
 21
13.9711
  0
LINE
  8
0
 10
906.439
 20
13.9711
 11
903.497
 21
14.5564
  0
LINE
  8
0
 10
902.167
 20
-12.1296
 11
904.939
 21
-10.9816
  0
LINE
  8
0
 10
904.939
 20
-10.9816
 11
908
 21
-18.3726
  0
LINE
  8
0
 10
908
 20
-18.3726
 11
905.228
 21
-19.5206
  0
LINE
  8
0
 10
905.228
 20
-19.5206
 11
902.167
 21
-12.1296
  0
LINE
  8
0
 10
738
 20
-21.8174
 11
738
 21
18.3726
  0
LINE
  8
0
 10
738
 20
18.3726
 11
722
 21
25
  0
LINE
  8
0
 10
722
 20
25
 11
722
 21
1.5
  0
LINE
  8
0
 10
722
 20
1.5
 11
730
 21
1.5
  0
LINE
  8
0
 10
730
 20
1.5
 11
730
 21
-1.5
  0
LINE
  8
0
 10
730
 20
-1.5
 11
722
 21
-1.5
  0
LINE
  8
0
 10
722
 20
-1.5
 11
722
 21
-25
  0
LINE
  8
0
 10
722
 20
-25
 11
738
 21
-21.8174
  0
LINE
  8
0
 10
732.167
 20
12.1296
 11
735.228
 21
19.5206
  0
LINE
  8
0
 10
735.228
 20
19.5206
 11
738
 21
18.3726
  0
LINE
  8
0
 10
738
 20
18.3726
 11
734.939
 21
10.9816
  0
LINE
  8
0
 10
734.939
 20
10.9816
 11
732.167
 21
12.1296
  0
LINE
  8
0
 10
733.497
 20
-14.5564
 11
736.439
 21
-13.9711
  0
LINE
  8
0
 10
736.439
 20
-13.9711
 11
738
 21
-21.8174
  0
LINE
  8
0
 10
738
 20
-21.8174
 11
735.058
 21
-22.4027
  0
LINE
  8
0
 10
735.058
 20
-22.4027
 11
733.497
 21
-14.5564
  0
LINE
  8
0
 10
925
 20
-21.8174
 11
925
 21
18.3726
  0
LINE
  8
0
 10
925
 20
18.3726
 11
909
 21
25
  0
LINE
  8
0
 10
909
 20
25
 11
909
 21
1.5
  0
LINE
  8
0
 10
909
 20
1.5
 11
917
 21
1.5
  0
LINE
  8
0
 10
917
 20
1.5
 11
917
 21
-1.5
  0
LINE
  8
0
 10
917
 20
-1.5
 11
909
 21
-1.5
  0
LINE
  8
0
 10
909
 20
-1.5
 11
909
 21
-25
  0
LINE
  8
0
 10
909
 20
-25
 11
925
 21
-21.8174
  0
LINE
  8
0
 10
919.167
 20
12.1296
 11
922.228
 21
19.5206
  0
LINE
  8
0
 10
922.228
 20
19.5206
 11
925
 21
18.3726
  0
LINE
  8
0
 10
925
 20
18.3726
 11
921.939
 21
10.9816
  0
LINE
  8
0
 10
921.939
 20
10.9816
 11
919.167
 21
12.1296
  0
LINE
  8
0
 10
920.497
 20
-14.5564
 11
923.439
 21
-13.9711
  0
LINE
  8
0
 10
923.439
 20
-13.9711
 11
925
 21
-21.8174
  0
LINE
  8
0
 10
925
 20
-21.8174
 11
922.058
 21
-22.4027
  0
LINE
  8
0
 10
922.058
 20
-22.4027
 11
920.497
 21
-14.5564
  0
LINE
  8
0
 10
942
 20
-21.8174
 11
942
 21
18.3726
  0
LINE
  8
0
 10
942
 20
18.3726
 11
926
 21
25
  0
LINE
  8
0
 10
926
 20
25
 11
926
 21
1.5
  0
LINE
  8
0
 10
926
 20
1.5
 11
934
 21
1.5
  0
LINE
  8
0
 10
934
 20
1.5
 11
934
 21
-1.5
  0
LINE
  8
0
 10
934
 20
-1.5
 11
926
 21
-1.5
  0
LINE
  8
0
 10
926
 20
-1.5
 11
926
 21
-25
  0
LINE
  8
0
 10
926
 20
-25
 11
942
 21
-21.8174
  0
LINE
  8
0
 10
936.167
 20
12.1296
 11
939.228
 21
19.5206
  0
LINE
  8
0
 10
939.228
 20
19.5206
 11
942
 21
18.3726
  0
LINE
  8
0
 10
942
 20
18.3726
 11
938.939
 21
10.9816
  0
LINE
  8
0
 10
938.939
 20
10.9816
 11
936.167
 21
12.1296
  0
LINE
  8
0
 10
937.497
 20
-14.5564
 11
940.439
 21
-13.9711
  0
LINE
  8
0
 10
940.439
 20
-13.9711
 11
942
 21
-21.8174
  0
LINE
  8
0
 10
942
 20
-21.8174
 11
939.058
 21
-22.4027
  0
LINE
  8
0
 10
939.058
 20
-22.4027
 11
937.497
 21
-14.5564
  0
LINE
  8
0
 10
721
 20
-18.3726
 11
721
 21
21.8174
  0
LINE
  8
0
 10
721
 20
21.8174
 11
705
 21
25
  0
LINE
  8
0
 10
705
 20
25
 11
705
 21
1.5
  0
LINE
  8
0
 10
705
 20
1.5
 11
713
 21
1.5
  0
LINE
  8
0
 10
713
 20
1.5
 11
713
 21
-1.5
  0
LINE
  8
0
 10
713
 20
-1.5
 11
705
 21
-1.5
  0
LINE
  8
0
 10
705
 20
-1.5
 11
705
 21
-25
  0
LINE
  8
0
 10
705
 20
-25
 11
721
 21
-18.3726
  0
LINE
  8
0
 10
716.497
 20
14.5564
 11
718.058
 21
22.4027
  0
LINE
  8
0
 10
718.058
 20
22.4027
 11
721
 21
21.8174
  0
LINE
  8
0
 10
721
 20
21.8174
 11
719.439
 21
13.9711
  0
LINE
  8
0
 10
719.439
 20
13.9711
 11
716.497
 21
14.5564
  0
LINE
  8
0
 10
715.167
 20
-12.1296
 11
717.939
 21
-10.9816
  0
LINE
  8
0
 10
717.939
 20
-10.9816
 11
721
 21
-18.3726
  0
LINE
  8
0
 10
721
 20
-18.3726
 11
718.228
 21
-19.5206
  0
LINE
  8
0
 10
718.228
 20
-19.5206
 11
715.167
 21
-12.1296
  0
LINE
  8
0
 10
959
 20
-21.8174
 11
959
 21
18.3726
  0
LINE
  8
0
 10
959
 20
18.3726
 11
943
 21
25
  0
LINE
  8
0
 10
943
 20
25
 11
943
 21
1.5
  0
LINE
  8
0
 10
943
 20
1.5
 11
951
 21
1.5
  0
LINE
  8
0
 10
951
 20
1.5
 11
951
 21
-1.5
  0
LINE
  8
0
 10
951
 20
-1.5
 11
943
 21
-1.5
  0
LINE
  8
0
 10
943
 20
-1.5
 11
943
 21
-25
  0
LINE
  8
0
 10
943
 20
-25
 11
959
 21
-21.8174
  0
LINE
  8
0
 10
953.167
 20
12.1296
 11
956.228
 21
19.5206
  0
LINE
  8
0
 10
956.228
 20
19.5206
 11
959
 21
18.3726
  0
LINE
  8
0
 10
959
 20
18.3726
 11
955.939
 21
10.9816
  0
LINE
  8
0
 10
955.939
 20
10.9816
 11
953.167
 21
12.1296
  0
LINE
  8
0
 10
954.497
 20
-14.5564
 11
957.439
 21
-13.9711
  0
LINE
  8
0
 10
957.439
 20
-13.9711
 11
959
 21
-21.8174
  0
LINE
  8
0
 10
959
 20
-21.8174
 11
956.058
 21
-22.4027
  0
LINE
  8
0
 10
956.058
 20
-22.4027
 11
954.497
 21
-14.5564
  0
LINE
  8
0
 10
704
 20
-18.3726
 11
704
 21
21.8174
  0
LINE
  8
0
 10
704
 20
21.8174
 11
688
 21
25
  0
LINE
  8
0
 10
688
 20
25
 11
688
 21
1.5
  0
LINE
  8
0
 10
688
 20
1.5
 11
696
 21
1.5
  0
LINE
  8
0
 10
696
 20
1.5
 11
696
 21
-1.5
  0
LINE
  8
0
 10
696
 20
-1.5
 11
688
 21
-1.5
  0
LINE
  8
0
 10
688
 20
-1.5
 11
688
 21
-25
  0
LINE
  8
0
 10
688
 20
-25
 11
704
 21
-18.3726
  0
LINE
  8
0
 10
699.497
 20
14.5564
 11
701.058
 21
22.4027
  0
LINE
  8
0
 10
701.058
 20
22.4027
 11
704
 21
21.8174
  0
LINE
  8
0
 10
704
 20
21.8174
 11
702.439
 21
13.9711
  0
LINE
  8
0
 10
702.439
 20
13.9711
 11
699.497
 21
14.5564
  0
LINE
  8
0
 10
698.167
 20
-12.1296
 11
700.939
 21
-10.9816
  0
LINE
  8
0
 10
700.939
 20
-10.9816
 11
704
 21
-18.3726
  0
LINE
  8
0
 10
704
 20
-18.3726
 11
701.228
 21
-19.5206
  0
LINE
  8
0
 10
701.228
 20
-19.5206
 11
698.167
 21
-12.1296
  0
LINE
  8
0
 10
122
 20
-8
 11
125
 21
-8
  0
LINE
  8
0
 10
125
 20
-8
 11
125
 21
-16
  0
LINE
  8
0
 10
125
 20
-16
 11
128
 21
-16
  0
LINE
  8
0
 10
128
 20
-16
 11
128
 21
16
  0
LINE
  8
0
 10
128
 20
16
 11
125
 21
16
  0
LINE
  8
0
 10
125
 20
16
 11
125
 21
8
  0
LINE
  8
0
 10
125
 20
8
 11
122
 21
8
  0
LINE
  8
0
 10
122
 20
8
 11
122
 21
16
  0
LINE
  8
0
 10
122
 20
16
 11
119
 21
16
  0
LINE
  8
0
 10
119
 20
16
 11
119
 21
-16
  0
LINE
  8
0
 10
119
 20
-16
 11
122
 21
-16
  0
LINE
  8
0
 10
122
 20
-16
 11
122
 21
-8
  0
LINE
  8
0
 10
-2.99998
 20
-8
 11
0
 21
-8
  0
LINE
  8
0
 10
0
 20
-8
 11
0
 21
-16
  0
LINE
  8
0
 10
0
 20
-16
 11
3
 21
-16
  0
LINE
  8
0
 10
3
 20
-16
 11
3
 21
16
  0
LINE
  8
0
 10
3
 20
16
 11
0
 21
16
  0
LINE
  8
0
 10
0
 20
16
 11
0
 21
8
  0
LINE
  8
0
 10
0
 20
8
 11
-2.99998
 21
8
  0
LINE
  8
0
 10
-2.99998
 20
8
 11
-2.99998
 21
16
  0
LINE
  8
0
 10
-2.99998
 20
16
 11
-5.99998
 21
16
  0
LINE
  8
0
 10
-5.99998
 20
16
 11
-5.99998
 21
-16
  0
LINE
  8
0
 10
-5.99998
 20
-16
 11
-2.99998
 21
-16
  0
LINE
  8
0
 10
-2.99998
 20
-16
 11
-2.99998
 21
-8
  0
LINE
  8
0
 10
22
 20
-8
 11
25
 21
-8
  0
LINE
  8
0
 10
25
 20
-8
 11
25
 21
-16
  0
LINE
  8
0
 10
25
 20
-16
 11
28
 21
-16
  0
LINE
  8
0
 10
28
 20
-16
 11
28
 21
16
  0
LINE
  8
0
 10
28
 20
16
 11
25
 21
16
  0
LINE
  8
0
 10
25
 20
16
 11
25
 21
8
  0
LINE
  8
0
 10
25
 20
8
 11
22
 21
8
  0
LINE
  8
0
 10
22
 20
8
 11
22
 21
16
  0
LINE
  8
0
 10
22
 20
16
 11
19
 21
16
  0
LINE
  8
0
 10
19
 20
16
 11
19
 21
-16
  0
LINE
  8
0
 10
19
 20
-16
 11
22
 21
-16
  0
LINE
  8
0
 10
22
 20
-16
 11
22
 21
-8
  0
LINE
  8
0
 10
47
 20
-8
 11
50
 21
-8
  0
LINE
  8
0
 10
50
 20
-8
 11
50
 21
-16
  0
LINE
  8
0
 10
50
 20
-16
 11
53
 21
-16
  0
LINE
  8
0
 10
53
 20
-16
 11
53
 21
16
  0
LINE
  8
0
 10
53
 20
16
 11
50
 21
16
  0
LINE
  8
0
 10
50
 20
16
 11
50
 21
8
  0
LINE
  8
0
 10
50
 20
8
 11
47
 21
8
  0
LINE
  8
0
 10
47
 20
8
 11
47
 21
16
  0
LINE
  8
0
 10
47
 20
16
 11
44
 21
16
  0
LINE
  8
0
 10
44
 20
16
 11
44
 21
-16
  0
LINE
  8
0
 10
44
 20
-16
 11
47
 21
-16
  0
LINE
  8
0
 10
47
 20
-16
 11
47
 21
-8
  0
LINE
  8
0
 10
72
 20
-8
 11
75
 21
-8
  0
LINE
  8
0
 10
75
 20
-8
 11
75
 21
-16
  0
LINE
  8
0
 10
75
 20
-16
 11
78
 21
-16
  0
LINE
  8
0
 10
78
 20
-16
 11
78
 21
16
  0
LINE
  8
0
 10
78
 20
16
 11
75
 21
16
  0
LINE
  8
0
 10
75
 20
16
 11
75
 21
8
  0
LINE
  8
0
 10
75
 20
8
 11
72
 21
8
  0
LINE
  8
0
 10
72
 20
8
 11
72
 21
16
  0
LINE
  8
0
 10
72
 20
16
 11
69
 21
16
  0
LINE
  8
0
 10
69
 20
16
 11
69
 21
-16
  0
LINE
  8
0
 10
69
 20
-16
 11
72
 21
-16
  0
LINE
  8
0
 10
72
 20
-16
 11
72
 21
-8
  0
LINE
  8
0
 10
97
 20
-8
 11
100
 21
-8
  0
LINE
  8
0
 10
100
 20
-8
 11
100
 21
-16
  0
LINE
  8
0
 10
100
 20
-16
 11
103
 21
-16
  0
LINE
  8
0
 10
103
 20
-16
 11
103
 21
16
  0
LINE
  8
0
 10
103
 20
16
 11
100
 21
16
  0
LINE
  8
0
 10
100
 20
16
 11
100
 21
8
  0
LINE
  8
0
 10
100
 20
8
 11
97
 21
8
  0
LINE
  8
0
 10
97
 20
8
 11
97
 21
16
  0
LINE
  8
0
 10
97
 20
16
 11
94
 21
16
  0
LINE
  8
0
 10
94
 20
16
 11
94
 21
-16
  0
LINE
  8
0
 10
94
 20
-16
 11
97
 21
-16
  0
LINE
  8
0
 10
97
 20
-16
 11
97
 21
-8
  0
LINE
  8
0
 10
384.192
 20
-13.435
 11
378.536
 21
-7.77817
  0
LINE
  8
0
 10
378.536
 20
-7.77817
 11
380.657
 21
-5.65685
  0
LINE
  8
0
 10
380.657
 20
-5.65685
 11
386.314
 21
-11.3137
  0
LINE
  8
0
 10
386.314
 20
-11.3137
 11
388.435
 21
-9.19238
  0
LINE
  8
0
 10
388.435
 20
-9.19238
 11
379.243
 21
0
  0
LINE
  8
0
 10
379.243
 20
0
 11
388.435
 21
9.19238
  0
LINE
  8
0
 10
388.435
 20
9.19238
 11
386.314
 21
11.3137
  0
LINE
  8
0
 10
386.314
 20
11.3137
 11
380.657
 21
5.65685
  0
LINE
  8
0
 10
380.657
 20
5.65685
 11
378.536
 21
7.77817
  0
LINE
  8
0
 10
378.536
 20
7.77817
 11
384.192
 21
13.435
  0
LINE
  8
0
 10
384.192
 20
13.435
 11
382.071
 21
15.5563
  0
LINE
  8
0
 10
382.071
 20
15.5563
 11
370.757
 21
4.24263
  0
LINE
  8
0
 10
370.757
 20
4.24263
 11
370.783
 21
4.21715
  0
LINE
  8
0
 10
370.783
 20
4.21715
 11
369.723
 21
2.85568
  0
LINE
  8
0
 10
369.723
 20
2.85568
 11
369.082
 21
0.987564
  0
LINE
  8
0
 10
369.082
 20
0.987564
 11
369.082
 21
-0.987564
  0
LINE
  8
0
 10
369.082
 20
-0.987564
 11
369.723
 21
-2.85568
  0
LINE
  8
0
 10
369.723
 20
-2.85568
 11
370.783
 21
-4.21715
  0
LINE
  8
0
 10
370.783
 20
-4.21715
 11
370.757
 21
-4.24263
  0
LINE
  8
0
 10
370.757
 20
-4.24263
 11
382.071
 21
-15.5563
  0
LINE
  8
0
 10
382.071
 20
-15.5563
 11
384.192
 21
-13.435
  0
LINE
  8
0
 10
359.192
 20
-13.435
 11
353.536
 21
-7.77817
  0
LINE
  8
0
 10
353.536
 20
-7.77817
 11
355.657
 21
-5.65685
  0
LINE
  8
0
 10
355.657
 20
-5.65685
 11
361.314
 21
-11.3137
  0
LINE
  8
0
 10
361.314
 20
-11.3137
 11
363.435
 21
-9.19238
  0
LINE
  8
0
 10
363.435
 20
-9.19238
 11
354.243
 21
0
  0
LINE
  8
0
 10
354.243
 20
0
 11
363.435
 21
9.19238
  0
LINE
  8
0
 10
363.435
 20
9.19238
 11
361.314
 21
11.3137
  0
LINE
  8
0
 10
361.314
 20
11.3137
 11
355.657
 21
5.65685
  0
LINE
  8
0
 10
355.657
 20
5.65685
 11
353.536
 21
7.77817
  0
LINE
  8
0
 10
353.536
 20
7.77817
 11
359.192
 21
13.435
  0
LINE
  8
0
 10
359.192
 20
13.435
 11
357.071
 21
15.5563
  0
LINE
  8
0
 10
357.071
 20
15.5563
 11
345.757
 21
4.24263
  0
LINE
  8
0
 10
345.757
 20
4.24263
 11
345.783
 21
4.21715
  0
LINE
  8
0
 10
345.783
 20
4.21715
 11
344.723
 21
2.85568
  0
LINE
  8
0
 10
344.723
 20
2.85568
 11
344.082
 21
0.987564
  0
LINE
  8
0
 10
344.082
 20
0.987564
 11
344.082
 21
-0.987564
  0
LINE
  8
0
 10
344.082
 20
-0.987564
 11
344.723
 21
-2.85568
  0
LINE
  8
0
 10
344.723
 20
-2.85568
 11
345.783
 21
-4.21715
  0
LINE
  8
0
 10
345.783
 20
-4.21715
 11
345.757
 21
-4.24263
  0
LINE
  8
0
 10
345.757
 20
-4.24263
 11
357.071
 21
-15.5563
  0
LINE
  8
0
 10
357.071
 20
-15.5563
 11
359.192
 21
-13.435
  0
LINE
  8
0
 10
409.192
 20
-13.435
 11
403.536
 21
-7.77817
  0
LINE
  8
0
 10
403.536
 20
-7.77817
 11
405.657
 21
-5.65685
  0
LINE
  8
0
 10
405.657
 20
-5.65685
 11
411.314
 21
-11.3137
  0
LINE
  8
0
 10
411.314
 20
-11.3137
 11
413.435
 21
-9.19238
  0
LINE
  8
0
 10
413.435
 20
-9.19238
 11
404.243
 21
0
  0
LINE
  8
0
 10
404.243
 20
0
 11
413.435
 21
9.19238
  0
LINE
  8
0
 10
413.435
 20
9.19238
 11
411.314
 21
11.3137
  0
LINE
  8
0
 10
411.314
 20
11.3137
 11
405.657
 21
5.65685
  0
LINE
  8
0
 10
405.657
 20
5.65685
 11
403.536
 21
7.77817
  0
LINE
  8
0
 10
403.536
 20
7.77817
 11
409.192
 21
13.435
  0
LINE
  8
0
 10
409.192
 20
13.435
 11
407.071
 21
15.5563
  0
LINE
  8
0
 10
407.071
 20
15.5563
 11
395.757
 21
4.24263
  0
LINE
  8
0
 10
395.757
 20
4.24263
 11
395.783
 21
4.21715
  0
LINE
  8
0
 10
395.783
 20
4.21715
 11
394.723
 21
2.85568
  0
LINE
  8
0
 10
394.723
 20
2.85568
 11
394.082
 21
0.987564
  0
LINE
  8
0
 10
394.082
 20
0.987564
 11
394.082
 21
-0.987564
  0
LINE
  8
0
 10
394.082
 20
-0.987564
 11
394.723
 21
-2.85568
  0
LINE
  8
0
 10
394.723
 20
-2.85568
 11
395.783
 21
-4.21715
  0
LINE
  8
0
 10
395.783
 20
-4.21715
 11
395.757
 21
-4.24263
  0
LINE
  8
0
 10
395.757
 20
-4.24263
 11
407.071
 21
-15.5563
  0
LINE
  8
0
 10
407.071
 20
-15.5563
 11
409.192
 21
-13.435
  0
LINE
  8
0
 10
334.192
 20
-13.435
 11
328.536
 21
-7.77817
  0
LINE
  8
0
 10
328.536
 20
-7.77817
 11
330.657
 21
-5.65685
  0
LINE
  8
0
 10
330.657
 20
-5.65685
 11
336.314
 21
-11.3137
  0
LINE
  8
0
 10
336.314
 20
-11.3137
 11
338.435
 21
-9.19238
  0
LINE
  8
0
 10
338.435
 20
-9.19238
 11
329.243
 21
0
  0
LINE
  8
0
 10
329.243
 20
0
 11
338.435
 21
9.19238
  0
LINE
  8
0
 10
338.435
 20
9.19238
 11
336.314
 21
11.3137
  0
LINE
  8
0
 10
336.314
 20
11.3137
 11
330.657
 21
5.65685
  0
LINE
  8
0
 10
330.657
 20
5.65685
 11
328.536
 21
7.77817
  0
LINE
  8
0
 10
328.536
 20
7.77817
 11
334.192
 21
13.435
  0
LINE
  8
0
 10
334.192
 20
13.435
 11
332.071
 21
15.5563
  0
LINE
  8
0
 10
332.071
 20
15.5563
 11
320.757
 21
4.24263
  0
LINE
  8
0
 10
320.757
 20
4.24263
 11
320.783
 21
4.21715
  0
LINE
  8
0
 10
320.783
 20
4.21715
 11
319.723
 21
2.85568
  0
LINE
  8
0
 10
319.723
 20
2.85568
 11
319.082
 21
0.987564
  0
LINE
  8
0
 10
319.082
 20
0.987564
 11
319.082
 21
-0.987564
  0
LINE
  8
0
 10
319.082
 20
-0.987564
 11
319.723
 21
-2.85568
  0
LINE
  8
0
 10
319.723
 20
-2.85568
 11
320.783
 21
-4.21715
  0
LINE
  8
0
 10
320.783
 20
-4.21715
 11
320.757
 21
-4.24263
  0
LINE
  8
0
 10
320.757
 20
-4.24263
 11
332.071
 21
-15.5563
  0
LINE
  8
0
 10
332.071
 20
-15.5563
 11
334.192
 21
-13.435
  0
LINE
  8
0
 10
309.192
 20
-13.435
 11
303.536
 21
-7.77817
  0
LINE
  8
0
 10
303.536
 20
-7.77817
 11
305.657
 21
-5.65685
  0
LINE
  8
0
 10
305.657
 20
-5.65685
 11
311.314
 21
-11.3137
  0
LINE
  8
0
 10
311.314
 20
-11.3137
 11
313.435
 21
-9.19238
  0
LINE
  8
0
 10
313.435
 20
-9.19238
 11
304.243
 21
0
  0
LINE
  8
0
 10
304.243
 20
0
 11
313.435
 21
9.19238
  0
LINE
  8
0
 10
313.435
 20
9.19238
 11
311.314
 21
11.3137
  0
LINE
  8
0
 10
311.314
 20
11.3137
 11
305.657
 21
5.65685
  0
LINE
  8
0
 10
305.657
 20
5.65685
 11
303.536
 21
7.77817
  0
LINE
  8
0
 10
303.536
 20
7.77817
 11
309.192
 21
13.435
  0
LINE
  8
0
 10
309.192
 20
13.435
 11
307.071
 21
15.5563
  0
LINE
  8
0
 10
307.071
 20
15.5563
 11
295.757
 21
4.24263
  0
LINE
  8
0
 10
295.757
 20
4.24263
 11
295.783
 21
4.21715
  0
LINE
  8
0
 10
295.783
 20
4.21715
 11
294.723
 21
2.85568
  0
LINE
  8
0
 10
294.723
 20
2.85568
 11
294.082
 21
0.987564
  0
LINE
  8
0
 10
294.082
 20
0.987564
 11
294.082
 21
-0.987564
  0
LINE
  8
0
 10
294.082
 20
-0.987564
 11
294.723
 21
-2.85568
  0
LINE
  8
0
 10
294.723
 20
-2.85568
 11
295.783
 21
-4.21715
  0
LINE
  8
0
 10
295.783
 20
-4.21715
 11
295.757
 21
-4.24263
  0
LINE
  8
0
 10
295.757
 20
-4.24263
 11
307.071
 21
-15.5563
  0
LINE
  8
0
 10
307.071
 20
-15.5563
 11
309.192
 21
-13.435
  0
LINE
  8
0
 10
434.192
 20
-13.435
 11
428.536
 21
-7.77817
  0
LINE
  8
0
 10
428.536
 20
-7.77817
 11
430.657
 21
-5.65685
  0
LINE
  8
0
 10
430.657
 20
-5.65685
 11
436.314
 21
-11.3137
  0
LINE
  8
0
 10
436.314
 20
-11.3137
 11
438.435
 21
-9.19238
  0
LINE
  8
0
 10
438.435
 20
-9.19238
 11
429.243
 21
0
  0
LINE
  8
0
 10
429.243
 20
0
 11
438.435
 21
9.19238
  0
LINE
  8
0
 10
438.435
 20
9.19238
 11
436.314
 21
11.3137
  0
LINE
  8
0
 10
436.314
 20
11.3137
 11
430.657
 21
5.65685
  0
LINE
  8
0
 10
430.657
 20
5.65685
 11
428.536
 21
7.77817
  0
LINE
  8
0
 10
428.536
 20
7.77817
 11
434.192
 21
13.435
  0
LINE
  8
0
 10
434.192
 20
13.435
 11
432.071
 21
15.5563
  0
LINE
  8
0
 10
432.071
 20
15.5563
 11
420.757
 21
4.24263
  0
LINE
  8
0
 10
420.757
 20
4.24263
 11
420.783
 21
4.21715
  0
LINE
  8
0
 10
420.783
 20
4.21715
 11
419.723
 21
2.85568
  0
LINE
  8
0
 10
419.723
 20
2.85568
 11
419.082
 21
0.987564
  0
LINE
  8
0
 10
419.082
 20
0.987564
 11
419.082
 21
-0.987564
  0
LINE
  8
0
 10
419.082
 20
-0.987564
 11
419.723
 21
-2.85568
  0
LINE
  8
0
 10
419.723
 20
-2.85568
 11
420.783
 21
-4.21715
  0
LINE
  8
0
 10
420.783
 20
-4.21715
 11
420.757
 21
-4.24263
  0
LINE
  8
0
 10
420.757
 20
-4.24263
 11
432.071
 21
-15.5563
  0
LINE
  8
0
 10
432.071
 20
-15.5563
 11
434.192
 21
-13.435
  0
LINE
  8
0
 10
284.192
 20
-13.435
 11
278.536
 21
-7.77817
  0
LINE
  8
0
 10
278.536
 20
-7.77817
 11
280.657
 21
-5.65685
  0
LINE
  8
0
 10
280.657
 20
-5.65685
 11
286.314
 21
-11.3137
  0
LINE
  8
0
 10
286.314
 20
-11.3137
 11
288.435
 21
-9.19238
  0
LINE
  8
0
 10
288.435
 20
-9.19238
 11
279.243
 21
0
  0
LINE
  8
0
 10
279.243
 20
0
 11
288.435
 21
9.19238
  0
LINE
  8
0
 10
288.435
 20
9.19238
 11
286.314
 21
11.3137
  0
LINE
  8
0
 10
286.314
 20
11.3137
 11
280.657
 21
5.65685
  0
LINE
  8
0
 10
280.657
 20
5.65685
 11
278.536
 21
7.77817
  0
LINE
  8
0
 10
278.536
 20
7.77817
 11
284.192
 21
13.435
  0
LINE
  8
0
 10
284.192
 20
13.435
 11
282.071
 21
15.5563
  0
LINE
  8
0
 10
282.071
 20
15.5563
 11
270.757
 21
4.24263
  0
LINE
  8
0
 10
270.757
 20
4.24263
 11
270.783
 21
4.21715
  0
LINE
  8
0
 10
270.783
 20
4.21715
 11
269.723
 21
2.85568
  0
LINE
  8
0
 10
269.723
 20
2.85568
 11
269.082
 21
0.987564
  0
LINE
  8
0
 10
269.082
 20
0.987564
 11
269.082
 21
-0.987564
  0
LINE
  8
0
 10
269.082
 20
-0.987564
 11
269.723
 21
-2.85568
  0
LINE
  8
0
 10
269.723
 20
-2.85568
 11
270.783
 21
-4.21715
  0
LINE
  8
0
 10
270.783
 20
-4.21715
 11
270.757
 21
-4.24263
  0
LINE
  8
0
 10
270.757
 20
-4.24263
 11
282.071
 21
-15.5563
  0
LINE
  8
0
 10
282.071
 20
-15.5563
 11
284.192
 21
-13.435
  0
LINE
  8
0
 10
259.192
 20
-13.435
 11
253.536
 21
-7.77817
  0
LINE
  8
0
 10
253.536
 20
-7.77817
 11
255.657
 21
-5.65685
  0
LINE
  8
0
 10
255.657
 20
-5.65685
 11
261.314
 21
-11.3137
  0
LINE
  8
0
 10
261.314
 20
-11.3137
 11
263.435
 21
-9.19238
  0
LINE
  8
0
 10
263.435
 20
-9.19238
 11
254.243
 21
0
  0
LINE
  8
0
 10
254.243
 20
0
 11
263.435
 21
9.19238
  0
LINE
  8
0
 10
263.435
 20
9.19238
 11
261.314
 21
11.3137
  0
LINE
  8
0
 10
261.314
 20
11.3137
 11
255.657
 21
5.65685
  0
LINE
  8
0
 10
255.657
 20
5.65685
 11
253.536
 21
7.77817
  0
LINE
  8
0
 10
253.536
 20
7.77817
 11
259.192
 21
13.435
  0
LINE
  8
0
 10
259.192
 20
13.435
 11
257.071
 21
15.5563
  0
LINE
  8
0
 10
257.071
 20
15.5563
 11
245.757
 21
4.24263
  0
LINE
  8
0
 10
245.757
 20
4.24263
 11
245.783
 21
4.21715
  0
LINE
  8
0
 10
245.783
 20
4.21715
 11
244.723
 21
2.85568
  0
LINE
  8
0
 10
244.723
 20
2.85568
 11
244.082
 21
0.987564
  0
LINE
  8
0
 10
244.082
 20
0.987564
 11
244.082
 21
-0.987564
  0
LINE
  8
0
 10
244.082
 20
-0.987564
 11
244.723
 21
-2.85568
  0
LINE
  8
0
 10
244.723
 20
-2.85568
 11
245.783
 21
-4.21715
  0
LINE
  8
0
 10
245.783
 20
-4.21715
 11
245.757
 21
-4.24263
  0
LINE
  8
0
 10
245.757
 20
-4.24263
 11
257.071
 21
-15.5563
  0
LINE
  8
0
 10
257.071
 20
-15.5563
 11
259.192
 21
-13.435
  0
LINE
  8
0
 10
234.192
 20
-13.435
 11
228.536
 21
-7.77817
  0
LINE
  8
0
 10
228.536
 20
-7.77817
 11
230.657
 21
-5.65685
  0
LINE
  8
0
 10
230.657
 20
-5.65685
 11
236.314
 21
-11.3137
  0
LINE
  8
0
 10
236.314
 20
-11.3137
 11
238.435
 21
-9.19238
  0
LINE
  8
0
 10
238.435
 20
-9.19238
 11
229.243
 21
0
  0
LINE
  8
0
 10
229.243
 20
0
 11
238.435
 21
9.19238
  0
LINE
  8
0
 10
238.435
 20
9.19238
 11
236.314
 21
11.3137
  0
LINE
  8
0
 10
236.314
 20
11.3137
 11
230.657
 21
5.65685
  0
LINE
  8
0
 10
230.657
 20
5.65685
 11
228.536
 21
7.77817
  0
LINE
  8
0
 10
228.536
 20
7.77817
 11
234.192
 21
13.435
  0
LINE
  8
0
 10
234.192
 20
13.435
 11
232.071
 21
15.5563
  0
LINE
  8
0
 10
232.071
 20
15.5563
 11
220.757
 21
4.24263
  0
LINE
  8
0
 10
220.757
 20
4.24263
 11
220.783
 21
4.21715
  0
LINE
  8
0
 10
220.783
 20
4.21715
 11
219.723
 21
2.85568
  0
LINE
  8
0
 10
219.723
 20
2.85568
 11
219.082
 21
0.987564
  0
LINE
  8
0
 10
219.082
 20
0.987564
 11
219.082
 21
-0.987564
  0
LINE
  8
0
 10
219.082
 20
-0.987564
 11
219.723
 21
-2.85568
  0
LINE
  8
0
 10
219.723
 20
-2.85568
 11
220.783
 21
-4.21715
  0
LINE
  8
0
 10
220.783
 20
-4.21715
 11
220.757
 21
-4.24263
  0
LINE
  8
0
 10
220.757
 20
-4.24263
 11
232.071
 21
-15.5563
  0
LINE
  8
0
 10
232.071
 20
-15.5563
 11
234.192
 21
-13.435
  0
LINE
  8
0
 10
209.192
 20
-13.435
 11
203.536
 21
-7.77817
  0
LINE
  8
0
 10
203.536
 20
-7.77817
 11
205.657
 21
-5.65685
  0
LINE
  8
0
 10
205.657
 20
-5.65685
 11
211.314
 21
-11.3137
  0
LINE
  8
0
 10
211.314
 20
-11.3137
 11
213.435
 21
-9.19238
  0
LINE
  8
0
 10
213.435
 20
-9.19238
 11
204.243
 21
0
  0
LINE
  8
0
 10
204.243
 20
0
 11
213.435
 21
9.19238
  0
LINE
  8
0
 10
213.435
 20
9.19238
 11
211.314
 21
11.3137
  0
LINE
  8
0
 10
211.314
 20
11.3137
 11
205.657
 21
5.65685
  0
LINE
  8
0
 10
205.657
 20
5.65685
 11
203.536
 21
7.77817
  0
LINE
  8
0
 10
203.536
 20
7.77817
 11
209.192
 21
13.435
  0
LINE
  8
0
 10
209.192
 20
13.435
 11
207.071
 21
15.5563
  0
LINE
  8
0
 10
207.071
 20
15.5563
 11
195.757
 21
4.24263
  0
LINE
  8
0
 10
195.757
 20
4.24263
 11
195.783
 21
4.21715
  0
LINE
  8
0
 10
195.783
 20
4.21715
 11
194.723
 21
2.85568
  0
LINE
  8
0
 10
194.723
 20
2.85568
 11
194.082
 21
0.987564
  0
LINE
  8
0
 10
194.082
 20
0.987564
 11
194.082
 21
-0.987564
  0
LINE
  8
0
 10
194.082
 20
-0.987564
 11
194.723
 21
-2.85568
  0
LINE
  8
0
 10
194.723
 20
-2.85568
 11
195.783
 21
-4.21715
  0
LINE
  8
0
 10
195.783
 20
-4.21715
 11
195.757
 21
-4.24263
  0
LINE
  8
0
 10
195.757
 20
-4.24263
 11
207.071
 21
-15.5563
  0
LINE
  8
0
 10
207.071
 20
-15.5563
 11
209.192
 21
-13.435
  0
LINE
  8
0
 10
184.192
 20
-13.435
 11
178.536
 21
-7.77817
  0
LINE
  8
0
 10
178.536
 20
-7.77817
 11
180.657
 21
-5.65685
  0
LINE
  8
0
 10
180.657
 20
-5.65685
 11
186.314
 21
-11.3137
  0
LINE
  8
0
 10
186.314
 20
-11.3137
 11
188.435
 21
-9.19238
  0
LINE
  8
0
 10
188.435
 20
-9.19238
 11
179.243
 21
0
  0
LINE
  8
0
 10
179.243
 20
0
 11
188.435
 21
9.19238
  0
LINE
  8
0
 10
188.435
 20
9.19238
 11
186.314
 21
11.3137
  0
LINE
  8
0
 10
186.314
 20
11.3137
 11
180.657
 21
5.65685
  0
LINE
  8
0
 10
180.657
 20
5.65685
 11
178.536
 21
7.77817
  0
LINE
  8
0
 10
178.536
 20
7.77817
 11
184.192
 21
13.435
  0
LINE
  8
0
 10
184.192
 20
13.435
 11
182.071
 21
15.5563
  0
LINE
  8
0
 10
182.071
 20
15.5563
 11
170.757
 21
4.24263
  0
LINE
  8
0
 10
170.757
 20
4.24263
 11
170.783
 21
4.21715
  0
LINE
  8
0
 10
170.783
 20
4.21715
 11
169.723
 21
2.85568
  0
LINE
  8
0
 10
169.723
 20
2.85568
 11
169.082
 21
0.987564
  0
LINE
  8
0
 10
169.082
 20
0.987564
 11
169.082
 21
-0.987564
  0
LINE
  8
0
 10
169.082
 20
-0.987564
 11
169.723
 21
-2.85568
  0
LINE
  8
0
 10
169.723
 20
-2.85568
 11
170.783
 21
-4.21715
  0
LINE
  8
0
 10
170.783
 20
-4.21715
 11
170.757
 21
-4.24263
  0
LINE
  8
0
 10
170.757
 20
-4.24263
 11
182.071
 21
-15.5563
  0
LINE
  8
0
 10
182.071
 20
-15.5563
 11
184.192
 21
-13.435
  0
LINE
  8
0
 10
159.192
 20
-13.435
 11
153.536
 21
-7.77817
  0
LINE
  8
0
 10
153.536
 20
-7.77817
 11
155.657
 21
-5.65685
  0
LINE
  8
0
 10
155.657
 20
-5.65685
 11
161.314
 21
-11.3137
  0
LINE
  8
0
 10
161.314
 20
-11.3137
 11
163.435
 21
-9.19238
  0
LINE
  8
0
 10
163.435
 20
-9.19238
 11
154.243
 21
0
  0
LINE
  8
0
 10
154.243
 20
0
 11
163.435
 21
9.19238
  0
LINE
  8
0
 10
163.435
 20
9.19238
 11
161.314
 21
11.3137
  0
LINE
  8
0
 10
161.314
 20
11.3137
 11
155.657
 21
5.65685
  0
LINE
  8
0
 10
155.657
 20
5.65685
 11
153.536
 21
7.77817
  0
LINE
  8
0
 10
153.536
 20
7.77817
 11
159.192
 21
13.435
  0
LINE
  8
0
 10
159.192
 20
13.435
 11
157.071
 21
15.5563
  0
LINE
  8
0
 10
157.071
 20
15.5563
 11
145.757
 21
4.24263
  0
LINE
  8
0
 10
145.757
 20
4.24263
 11
145.783
 21
4.21715
  0
LINE
  8
0
 10
145.783
 20
4.21715
 11
144.723
 21
2.85568
  0
LINE
  8
0
 10
144.723
 20
2.85568
 11
144.082
 21
0.987564
  0
LINE
  8
0
 10
144.082
 20
0.987564
 11
144.082
 21
-0.987564
  0
LINE
  8
0
 10
144.082
 20
-0.987564
 11
144.723
 21
-2.85568
  0
LINE
  8
0
 10
144.723
 20
-2.85568
 11
145.783
 21
-4.21715
  0
LINE
  8
0
 10
145.783
 20
-4.21715
 11
145.757
 21
-4.24263
  0
LINE
  8
0
 10
145.757
 20
-4.24263
 11
157.071
 21
-15.5563
  0
LINE
  8
0
 10
157.071
 20
-15.5563
 11
159.192
 21
-13.435
  0
ENDSEC
  0
SECTION
  2
OBJECTS
  0
DICTIONARY
  0
ENDSEC
  0
EOF
