  0
SECTION
  2
BLOCKS
  0
ENDSEC
  0
SECTION
  2
ENTITIES
  0
LINE
  8
0
 10
60.4
 20
67.5107
 11
63.6
 21
67.5107
  0
LINE
  8
0
 10
63.6
 20
67.5107
 11
63.6
 21
64.3107
  0
LINE
  8
0
 10
63.6
 20
64.3107
 11
66.8
 21
64.3107
  0
LINE
  8
0
 10
66.8
 20
64.3107
 11
66.8
 21
77.1107
  0
LINE
  8
0
 10
66.8
 20
77.1107
 11
63.6
 21
77.1107
  0
LINE
  8
0
 10
63.6
 20
77.1107
 11
63.6
 21
73.9107
  0
LINE
  8
0
 10
63.6
 20
73.9107
 11
60.4
 21
73.9107
  0
LINE
  8
0
 10
60.4
 20
73.9107
 11
60.4
 21
77.1107
  0
LINE
  8
0
 10
60.4
 20
77.1107
 11
57.2
 21
77.1107
  0
LINE
  8
0
 10
57.2
 20
77.1107
 11
57.2
 21
64.3107
  0
LINE
  8
0
 10
57.2
 20
64.3107
 11
60.4
 21
64.3107
  0
LINE
  8
0
 10
60.4
 20
64.3107
 11
60.4
 21
67.5107
  0
LINE
  8
0
 10
49.8
 20
67.5107
 11
53
 21
67.5107
  0
LINE
  8
0
 10
53
 20
67.5107
 11
53
 21
64.3107
  0
LINE
  8
0
 10
53
 20
64.3107
 11
56.2
 21
64.3107
  0
LINE
  8
0
 10
56.2
 20
64.3107
 11
56.2
 21
77.1107
  0
LINE
  8
0
 10
56.2
 20
77.1107
 11
53
 21
77.1107
  0
LINE
  8
0
 10
53
 20
77.1107
 11
53
 21
73.9107
  0
LINE
  8
0
 10
53
 20
73.9107
 11
49.8
 21
73.9107
  0
LINE
  8
0
 10
49.8
 20
73.9107
 11
49.8
 21
77.1107
  0
LINE
  8
0
 10
49.8
 20
77.1107
 11
46.6
 21
77.1107
  0
LINE
  8
0
 10
46.6
 20
77.1107
 11
46.6
 21
64.3107
  0
LINE
  8
0
 10
46.6
 20
64.3107
 11
49.8
 21
64.3107
  0
LINE
  8
0
 10
49.8
 20
64.3107
 11
49.8
 21
67.5107
  0
LINE
  8
0
 10
39.2
 20
67.5107
 11
42.4
 21
67.5107
  0
LINE
  8
0
 10
42.4
 20
67.5107
 11
42.4
 21
64.3107
  0
LINE
  8
0
 10
42.4
 20
64.3107
 11
45.6
 21
64.3107
  0
LINE
  8
0
 10
45.6
 20
64.3107
 11
45.6
 21
77.1107
  0
LINE
  8
0
 10
45.6
 20
77.1107
 11
42.4
 21
77.1107
  0
LINE
  8
0
 10
42.4
 20
77.1107
 11
42.4
 21
73.9107
  0
LINE
  8
0
 10
42.4
 20
73.9107
 11
39.2
 21
73.9107
  0
LINE
  8
0
 10
39.2
 20
73.9107
 11
39.2
 21
77.1107
  0
LINE
  8
0
 10
39.2
 20
77.1107
 11
36
 21
77.1107
  0
LINE
  8
0
 10
36
 20
77.1107
 11
36
 21
64.3107
  0
LINE
  8
0
 10
36
 20
64.3107
 11
39.2
 21
64.3107
  0
LINE
  8
0
 10
39.2
 20
64.3107
 11
39.2
 21
67.5107
  0
LINE
  8
0
 10
28.6
 20
67.5107
 11
31.8
 21
67.5107
  0
LINE
  8
0
 10
31.8
 20
67.5107
 11
31.8
 21
64.3107
  0
LINE
  8
0
 10
31.8
 20
64.3107
 11
35
 21
64.3107
  0
LINE
  8
0
 10
35
 20
64.3107
 11
35
 21
77.1107
  0
LINE
  8
0
 10
35
 20
77.1107
 11
31.8
 21
77.1107
  0
LINE
  8
0
 10
31.8
 20
77.1107
 11
31.8
 21
73.9107
  0
LINE
  8
0
 10
31.8
 20
73.9107
 11
28.6
 21
73.9107
  0
LINE
  8
0
 10
28.6
 20
73.9107
 11
28.6
 21
77.1107
  0
LINE
  8
0
 10
28.6
 20
77.1107
 11
25.4
 21
77.1107
  0
LINE
  8
0
 10
25.4
 20
77.1107
 11
25.4
 21
64.3107
  0
LINE
  8
0
 10
25.4
 20
64.3107
 11
28.6
 21
64.3107
  0
LINE
  8
0
 10
28.6
 20
64.3107
 11
28.6
 21
67.5107
  0
LINE
  8
0
 10
18
 20
67.5107
 11
21.2
 21
67.5107
  0
LINE
  8
0
 10
21.2
 20
67.5107
 11
21.2
 21
64.3107
  0
LINE
  8
0
 10
21.2
 20
64.3107
 11
24.4
 21
64.3107
  0
LINE
  8
0
 10
24.4
 20
64.3107
 11
24.4
 21
77.1107
  0
LINE
  8
0
 10
24.4
 20
77.1107
 11
21.2
 21
77.1107
  0
LINE
  8
0
 10
21.2
 20
77.1107
 11
21.2
 21
73.9107
  0
LINE
  8
0
 10
21.2
 20
73.9107
 11
18
 21
73.9107
  0
LINE
  8
0
 10
18
 20
73.9107
 11
18
 21
77.1107
  0
LINE
  8
0
 10
18
 20
77.1107
 11
14.8
 21
77.1107
  0
LINE
  8
0
 10
14.8
 20
77.1107
 11
14.8
 21
64.3107
  0
LINE
  8
0
 10
14.8
 20
64.3107
 11
18
 21
64.3107
  0
LINE
  8
0
 10
18
 20
64.3107
 11
18
 21
67.5107
  0
LINE
  8
0
 10
7.39999
 20
67.5107
 11
10.6
 21
67.5107
  0
LINE
  8
0
 10
10.6
 20
67.5107
 11
10.6
 21
64.3107
  0
LINE
  8
0
 10
10.6
 20
64.3107
 11
13.8
 21
64.3107
  0
LINE
  8
0
 10
13.8
 20
64.3107
 11
13.8
 21
77.1107
  0
LINE
  8
0
 10
13.8
 20
77.1107
 11
10.6
 21
77.1107
  0
LINE
  8
0
 10
10.6
 20
77.1107
 11
10.6
 21
73.9107
  0
LINE
  8
0
 10
10.6
 20
73.9107
 11
7.39999
 21
73.9107
  0
LINE
  8
0
 10
7.39999
 20
73.9107
 11
7.40001
 21
77.1107
  0
LINE
  8
0
 10
7.40001
 20
77.1107
 11
4.2
 21
77.1107
  0
LINE
  8
0
 10
4.2
 20
77.1107
 11
4.2
 21
64.3107
  0
LINE
  8
0
 10
4.2
 20
64.3107
 11
7.40001
 21
64.3107
  0
LINE
  8
0
 10
7.40001
 20
64.3107
 11
7.39999
 21
67.5107
  0
LINE
  8
0
 10
-3.2
 20
67.5107
 11
0
 21
67.5107
  0
LINE
  8
0
 10
0
 20
67.5107
 11
0
 21
64.3107
  0
LINE
  8
0
 10
0
 20
64.3107
 11
3.2
 21
64.3107
  0
LINE
  8
0
 10
3.2
 20
64.3107
 11
3.2
 21
77.1107
  0
LINE
  8
0
 10
3.2
 20
77.1107
 11
0
 21
77.1107
  0
LINE
  8
0
 10
0
 20
77.1107
 11
0
 21
73.9107
  0
LINE
  8
0
 10
0
 20
73.9107
 11
-3.2
 21
73.9107
  0
LINE
  8
0
 10
-3.2
 20
73.9107
 11
-3.19998
 21
77.1107
  0
LINE
  8
0
 10
-3.19998
 20
77.1107
 11
-6.39999
 21
77.1107
  0
LINE
  8
0
 10
-6.39999
 20
77.1107
 11
-6.39999
 21
64.3107
  0
LINE
  8
0
 10
-6.39999
 20
64.3107
 11
-3.19998
 21
64.3107
  0
LINE
  8
0
 10
-3.19998
 20
64.3107
 11
-3.2
 21
67.5107
  0
LINE
  8
0
 10
15.7754
 20
-22.8608
 11
12.819
 21
-21.6362
  0
LINE
  8
0
 10
12.819
 20
-21.6362
 11
14.0436
 21
-18.6798
  0
LINE
  8
0
 10
14.0436
 20
-18.6798
 11
17
 21
-19.9044
  0
LINE
  8
0
 10
17
 20
-19.9044
 11
17
 21
19.9044
  0
LINE
  8
0
 10
17
 20
19.9044
 11
14.0436
 21
18.6798
  0
LINE
  8
0
 10
14.0436
 20
18.6798
 11
12.819
 21
21.6362
  0
LINE
  8
0
 10
12.819
 20
21.6362
 11
15.7754
 21
22.8608
  0
LINE
  8
0
 10
15.7754
 20
22.8608
 11
10.6
 21
35.3553
  0
LINE
  8
0
 10
10.6
 20
35.3553
 11
10.6
 21
1.59999
  0
LINE
  8
0
 10
10.6
 20
1.59999
 11
13.8
 21
1.59999
  0
LINE
  8
0
 10
13.8
 20
1.59999
 11
13.8
 21
-1.59999
  0
LINE
  8
0
 10
13.8
 20
-1.59999
 11
10.6
 21
-1.59999
  0
LINE
  8
0
 10
10.6
 20
-1.59999
 11
10.6
 21
-35.3553
  0
LINE
  8
0
 10
10.6
 20
-35.3553
 11
15.7754
 21
-22.8608
  0
LINE
  8
0
 10
23.1754
 20
-22.8608
 11
20.219
 21
-21.6362
  0
LINE
  8
0
 10
20.219
 20
-21.6362
 11
21.4436
 21
-18.6798
  0
LINE
  8
0
 10
21.4436
 20
-18.6798
 11
24.4
 21
-19.9044
  0
LINE
  8
0
 10
24.4
 20
-19.9044
 11
24.4
 21
19.9044
  0
LINE
  8
0
 10
24.4
 20
19.9044
 11
21.4436
 21
18.6798
  0
LINE
  8
0
 10
21.4436
 20
18.6798
 11
20.219
 21
21.6362
  0
LINE
  8
0
 10
20.219
 20
21.6362
 11
23.1754
 21
22.8608
  0
LINE
  8
0
 10
23.1754
 20
22.8608
 11
18
 21
35.3553
  0
LINE
  8
0
 10
18
 20
35.3553
 11
18
 21
1.59999
  0
LINE
  8
0
 10
18
 20
1.59999
 11
21.2
 21
1.59999
  0
LINE
  8
0
 10
21.2
 20
1.59999
 11
21.2
 21
-1.59999
  0
LINE
  8
0
 10
21.2
 20
-1.59999
 11
18
 21
-1.59999
  0
LINE
  8
0
 10
18
 20
-1.59999
 11
18
 21
-35.3553
  0
LINE
  8
0
 10
18
 20
-35.3553
 11
23.1754
 21
-22.8608
  0
LINE
  8
0
 10
51.7372
 20
-20.8627
 11
49.4745
 21
-18.6
  0
LINE
  8
0
 10
49.4745
 20
-18.6
 11
51.7372
 21
-16.3372
  0
LINE
  8
0
 10
51.7372
 20
-16.3372
 11
54
 21
-18.6
  0
LINE
  8
0
 10
54
 20
-18.6
 11
54
 21
9.54903
  0
LINE
  8
0
 10
54
 20
9.54903
 11
51.0436
 21
8.32445
  0
LINE
  8
0
 10
51.0436
 20
8.32445
 11
49.819
 21
11.2809
  0
LINE
  8
0
 10
49.819
 20
11.2809
 11
52.7754
 21
12.5054
  0
LINE
  8
0
 10
52.7754
 20
12.5054
 11
47.6
 21
25
  0
LINE
  8
0
 10
47.6
 20
25
 11
47.6
 21
1.59999
  0
LINE
  8
0
 10
47.6
 20
1.59999
 11
50.8
 21
1.59999
  0
LINE
  8
0
 10
50.8
 20
1.59999
 11
50.8
 21
-1.59999
  0
LINE
  8
0
 10
50.8
 20
-1.59999
 11
47.6
 21
-1.59999
  0
LINE
  8
0
 10
47.6
 20
-1.59999
 11
47.6
 21
-25
  0
LINE
  8
0
 10
47.6
 20
-25
 11
51.7372
 21
-20.8627
  0
LINE
  8
0
 10
45.3754
 20
-12.5054
 11
42.419
 21
-11.2809
  0
LINE
  8
0
 10
42.419
 20
-11.2809
 11
43.6436
 21
-8.32445
  0
LINE
  8
0
 10
43.6436
 20
-8.32445
 11
46.6
 21
-9.54903
  0
LINE
  8
0
 10
46.6
 20
-9.54903
 11
46.6
 21
18.6
  0
LINE
  8
0
 10
46.6
 20
18.6
 11
44.3372
 21
16.3372
  0
LINE
  8
0
 10
44.3372
 20
16.3372
 11
42.0745
 21
18.6
  0
LINE
  8
0
 10
42.0745
 20
18.6
 11
44.3372
 21
20.8627
  0
LINE
  8
0
 10
44.3372
 20
20.8627
 11
40.2
 21
25
  0
LINE
  8
0
 10
40.2
 20
25
 11
40.2
 21
1.59999
  0
LINE
  8
0
 10
40.2
 20
1.59999
 11
43.4
 21
1.59999
  0
LINE
  8
0
 10
43.4
 20
1.59999
 11
43.4
 21
-1.59999
  0
LINE
  8
0
 10
43.4
 20
-1.59999
 11
40.2
 21
-1.59999
  0
LINE
  8
0
 10
40.2
 20
-1.59999
 11
40.2
 21
-25
  0
LINE
  8
0
 10
40.2
 20
-25
 11
45.3754
 21
-12.5054
  0
LINE
  8
0
 10
37.9754
 20
-12.5054
 11
35.019
 21
-11.2809
  0
LINE
  8
0
 10
35.019
 20
-11.2809
 11
36.2436
 21
-8.32445
  0
LINE
  8
0
 10
36.2436
 20
-8.32445
 11
39.2
 21
-9.54903
  0
LINE
  8
0
 10
39.2
 20
-9.54903
 11
39.2
 21
18.6
  0
LINE
  8
0
 10
39.2
 20
18.6
 11
36.9372
 21
16.3372
  0
LINE
  8
0
 10
36.9372
 20
16.3372
 11
34.6745
 21
18.6
  0
LINE
  8
0
 10
34.6745
 20
18.6
 11
36.9372
 21
20.8627
  0
LINE
  8
0
 10
36.9372
 20
20.8627
 11
32.8
 21
25
  0
LINE
  8
0
 10
32.8
 20
25
 11
32.8
 21
1.59999
  0
LINE
  8
0
 10
32.8
 20
1.59999
 11
36
 21
1.59999
  0
LINE
  8
0
 10
36
 20
1.59999
 11
36
 21
-1.59999
  0
LINE
  8
0
 10
36
 20
-1.59999
 11
32.8
 21
-1.59999
  0
LINE
  8
0
 10
32.8
 20
-1.59999
 11
32.8
 21
-25
  0
LINE
  8
0
 10
32.8
 20
-25
 11
37.9754
 21
-12.5054
  0
LINE
  8
0
 10
29.5372
 20
-20.8627
 11
27.2745
 21
-18.6
  0
LINE
  8
0
 10
27.2745
 20
-18.6
 11
29.5372
 21
-16.3372
  0
LINE
  8
0
 10
29.5372
 20
-16.3372
 11
31.8
 21
-18.6
  0
LINE
  8
0
 10
31.8
 20
-18.6
 11
31.8
 21
9.54903
  0
LINE
  8
0
 10
31.8
 20
9.54903
 11
28.8436
 21
8.32445
  0
LINE
  8
0
 10
28.8436
 20
8.32445
 11
27.619
 21
11.2809
  0
LINE
  8
0
 10
27.619
 20
11.2809
 11
30.5754
 21
12.5054
  0
LINE
  8
0
 10
30.5754
 20
12.5054
 11
25.4
 21
25
  0
LINE
  8
0
 10
25.4
 20
25
 11
25.4
 21
1.59999
  0
LINE
  8
0
 10
25.4
 20
1.59999
 11
28.6
 21
1.59999
  0
LINE
  8
0
 10
28.6
 20
1.59999
 11
28.6
 21
-1.59999
  0
LINE
  8
0
 10
28.6
 20
-1.59999
 11
25.4
 21
-1.59999
  0
LINE
  8
0
 10
25.4
 20
-1.59999
 11
25.4
 21
-25
  0
LINE
  8
0
 10
25.4
 20
-25
 11
29.5372
 21
-20.8627
  0
LINE
  8
0
 10
2.26274
 20
-6.78821
 11
0
 21
-4.52547
  0
LINE
  8
0
 10
0
 20
-4.52547
 11
2.26274
 21
-2.26274
  0
LINE
  8
0
 10
2.26274
 20
-2.26274
 11
4.52547
 21
-4.52547
  0
LINE
  8
0
 10
4.52547
 20
-4.52547
 11
6.78821
 21
-2.26274
  0
LINE
  8
0
 10
6.78821
 20
-2.26274
 11
4.52547
 21
0
  0
LINE
  8
0
 10
4.52547
 20
0
 11
6.78821
 21
2.26274
  0
LINE
  8
0
 10
6.78821
 20
2.26274
 11
4.52547
 21
4.52547
  0
LINE
  8
0
 10
4.52547
 20
4.52547
 11
2.26274
 21
2.26274
  0
LINE
  8
0
 10
2.26274
 20
2.26274
 11
0
 21
4.52547
  0
LINE
  8
0
 10
0
 20
4.52547
 11
2.26274
 21
6.78821
  0
LINE
  8
0
 10
2.26274
 20
6.78821
 11
0
 21
9.05095
  0
LINE
  8
0
 10
0
 20
9.05095
 11
-4.52547
 21
4.52547
  0
LINE
  8
0
 10
-4.52547
 20
4.52547
 11
1.52588e-05
 21
0
  0
LINE
  8
0
 10
1.52588e-05
 20
0
 11
-4.52547
 21
-4.52547
  0
LINE
  8
0
 10
-4.52547
 20
-4.52547
 11
0
 21
-9.05095
  0
LINE
  8
0
 10
0
 20
-9.05095
 11
2.26274
 21
-6.78821
  0
ENDSEC
  0
SECTION
  2
OBJECTS
  0
DICTIONARY
  0
ENDSEC
  0
EOF
