solid OBJECT
  facet normal 0.47252790639108205 0.81844234947578087 0.32690900609531165
    outer loop
      vertex 14.272896766662598 0 20.630640029907227
      vertex 28.545793533325195 0 0
      vertex 7.1364483833312988 12.360691070556641 0
    endloop
  endfacet
  facet normal 0.47252790639108205 0.81844234947578087 0.32690900609531165
    outer loop
      vertex -7.1364483833312988 12.360691070556641 20.630640029907227
      vertex 14.272896766662598 0 20.630640029907227
      vertex 7.1364483833312988 12.360691070556641 0
    endloop
  endfacet
  facet normal 0.47252790639108205 0.81844234947578087 0.32690900609531165
    outer loop
      vertex -7.1364483833312988 12.360691070556641 20.630640029907227
      vertex 7.1364483833312988 12.360691070556641 0
      vertex -14.272896766662598 24.721382141113281 0
    endloop
  endfacet
  facet normal 0.47252790639108205 0.81844234947578087 0.32690900609531165
    outer loop
      vertex 14.272896766662598 0 20.630640029907227
      vertex -7.1364483833312988 12.360691070556641 20.630640029907227
      vertex 0 0 41.261280059814453
    endloop
  endfacet
  facet normal -0.94505581867005972 -0 0.32690900813202317
    outer loop
      vertex -14.272896766662598 5.3290705182007514e-15 0
      vertex -7.1364483833312988 12.360691070556641 20.630640029907227
      vertex -14.272896766662598 24.721382141113281 0
    endloop
  endfacet
  facet normal -0.94505581867005972 -0 0.32690900813202317
    outer loop
      vertex -7.1364483833312988 -12.360691070556641 20.630640029907227
      vertex 0 0 41.261280059814453
      vertex -7.1364483833312988 12.360691070556641 20.630640029907227
    endloop
  endfacet
  facet normal -0.94505581867005972 -0 0.32690900813202317
    outer loop
      vertex -7.1364483833312988 -12.360691070556641 20.630640029907227
      vertex -14.272896766662598 5.3290705182007514e-15 0
      vertex -14.272896766662598 -24.721382141113281 0
    endloop
  endfacet
  facet normal -0.94505581867005972 0 0.32690900813202317
    outer loop
      vertex -7.1364483833312988 12.360691070556641 20.630640029907227
      vertex -14.272896766662598 5.3290705182007514e-15 0
      vertex -7.1364483833312988 -12.360691070556641 20.630640029907227
    endloop
  endfacet
  facet normal 0.47252790639108205 -0.81844234947578087 0.32690900609531165
    outer loop
      vertex 7.1364483833312988 -12.360691070556641 0
      vertex -7.1364483833312988 -12.360691070556641 20.630640029907227
      vertex -14.272896766662598 -24.721382141113281 0
    endloop
  endfacet
  facet normal 0.47252790639108205 -0.81844234947578087 0.32690900609531165
    outer loop
      vertex 14.272896766662598 0 20.630640029907227
      vertex 0 0 41.261280059814453
      vertex -7.1364483833312988 -12.360691070556641 20.630640029907227
    endloop
  endfacet
  facet normal 0.47252790639108205 -0.81844234947578087 0.32690900609531165
    outer loop
      vertex 14.272896766662598 0 20.630640029907227
      vertex 7.1364483833312988 -12.360691070556641 0
      vertex 28.545793533325195 0 0
    endloop
  endfacet
  facet normal 0.47252790639108205 -0.81844234947578087 0.32690900609531165
    outer loop
      vertex -7.1364483833312988 -12.360691070556641 20.630640029907227
      vertex 7.1364483833312988 -12.360691070556641 0
      vertex 14.272896766662598 0 20.630640029907227
    endloop
  endfacet
  facet normal 0 0 -1
    outer loop
      vertex 7.1364483833312988 -12.360691070556641 0
      vertex -14.272896766662598 -24.721382141113281 0
      vertex -14.272896766662598 5.3290705182007514e-15 0
    endloop
  endfacet
  facet normal 0 0 -1
    outer loop
      vertex 7.1364483833312988 12.360691070556641 0
      vertex -14.272896766662598 5.3290705182007514e-15 0
      vertex -14.272896766662598 24.721382141113281 0
    endloop
  endfacet
  facet normal 0 0 -1
    outer loop
      vertex 7.1364483833312988 12.360691070556641 0
      vertex 28.545793533325195 0 0
      vertex 7.1364483833312988 -12.360691070556641 0
    endloop
  endfacet
  facet normal -0 -0 -1
    outer loop
      vertex -14.272896766662598 5.3290705182007514e-15 0
      vertex 7.1364483833312988 12.360691070556641 0
      vertex 7.1364483833312988 -12.360691070556641 0
    endloop
  endfacet
endsolid OBJECT
